<svg xmlns="http://www.w3.org/2000/svg"><style>:root svg:not(:target){display:none}</style><svg fill="none" id="calculator__wrapper-image-tablet-1" viewBox="0 0 162 72"><path fill-rule="evenodd" clip-rule="evenodd" d="M3 1h156a2 2 0 0 1 2 2v66a2 2 0 0 1-2 2h-21v1h21a3 3 0 0 0 3-3V3a3 3 0 0 0-3-3H3a3 3 0 0 0-3 3v66a3 3 0 0 0 3 3h21v-1H3a2 2 0 0 1-2-2V3a2 2 0 0 1 2-2Z" fill="#CDCDCD"></path></svg><svg fill="none" id="calculator__wrapper-image-tablet-2" viewBox="0 0 162 72"><path fill-rule="evenodd" clip-rule="evenodd" d="M3 1h156a2 2 0 0 1 2 2v66a2 2 0 0 1-2 2h-7v1h7a3 3 0 0 0 3-3V3a3 3 0 0 0-3-3H3a3 3 0 0 0-3 3v66a3 3 0 0 0 3 3h7v-1H3a2 2 0 0 1-2-2V3a2 2 0 0 1 2-2Z" fill="#CDCDCD"></path></svg><svg fill="none" id="calculator__wrapper-image" viewBox="0 0 124 56"><path fill-rule="evenodd" clip-rule="evenodd" d="M3 1h118a2 2 0 0 1 2 2v50a2 2 0 0 1-2 2h-16v1h16a3 3 0 0 0 3-3V3a3 3 0 0 0-3-3H3a3 3 0 0 0-3 3v50a3 3 0 0 0 3 3h15v-1H3a2 2 0 0 1-2-2V3a2 2 0 0 1 2-2Z" fill="#CDCDCD"></path></svg><svg fill="none" id="email" viewBox="0 0 20 20"><path d="M1.5 8.5v8h17v-8m-17-5h17v2l-8.5 6-8.5-6v-2Z" stroke="#000" stroke-linecap="round" stroke-linejoin="round"></path></svg><svg fill="none" id="gift-icon" viewBox="0 0 80 83"><path d="M65.657 35.83H14.391a3.266 3.266 0 0 1-3.263-3.263v-9.772a3.267 3.267 0 0 1 3.263-3.263h51.265a3.266 3.266 0 0 1 3.262 3.263v9.773a3.264 3.264 0 0 1-3.261 3.261ZM14.391 22.031a.773.773 0 0 0-.763.763v9.773c0 .42.342.762.763.762h51.265c.42 0 .762-.342.762-.762v-9.773a.772.772 0 0 0-.762-.763H14.391Z" fill="#fff"></path><path d="M58.507 69.308h-36.97a6.289 6.289 0 0 1-6.281-6.282V34.579a1.25 1.25 0 0 1 2.5 0v28.447a3.786 3.786 0 0 0 3.781 3.782h36.97a3.785 3.785 0 0 0 3.781-3.782V34.579a1.25 1.25 0 0 1 2.5 0v28.447a6.288 6.288 0 0 1-6.28 6.282Z" fill="#fff"></path><path d="M40.023 69.308c-.69 0-1.25-.56-1.25-1.25V34.579a1.25 1.25 0 0 1 2.5 0v33.478c0 .692-.56 1.25-1.25 1.25ZM24.422 22.028c-3.913-2.12-5.373-7.028-3.255-10.94 2.117-3.912 7.024-5.373 10.939-3.256 5.963 3.23 9.183 12.24 9.316 12.623l-2.358.829c-.03-.085-3.038-8.486-8.148-11.254a5.578 5.578 0 0 0-7.55 2.247 5.58 5.58 0 0 0 2.248 7.553l-1.192 2.198Z" fill="#fff"></path><path d="m55.622 22.028-1.19-2.199a5.541 5.541 0 0 0 2.689-3.31 5.53 5.53 0 0 0-.442-4.241A5.527 5.527 0 0 0 53.37 9.59a5.533 5.533 0 0 0-4.24.44c-5.11 2.768-8.118 11.168-8.148 11.253l-2.359-.829c.134-.382 3.353-9.393 9.317-12.623a8.015 8.015 0 0 1 6.143-.637 8.01 8.01 0 0 1 4.794 3.893 8.013 8.013 0 0 1 .639 6.144 8.027 8.027 0 0 1-3.895 4.797ZM63.538 52.569H16.506a1.25 1.25 0 0 1 0-2.5h47.032a1.25 1.25 0 0 1 0 2.5Z" fill="#fff"></path></svg><svg fill="none" id="how-it-works__item-bg-image-1" viewBox="0 0 71 227"><path d="M40.372 227V39.4c-.187.187-2.333.747-6.44 1.68-3.92.933-8.4 1.867-13.44 2.8-5.04.933-9.52 1.773-13.44 2.52-3.92.747-5.973 1.12-6.16 1.12V24.84c3.174-.747 6.814-1.773 10.92-3.08A119.738 119.738 0 0 0 24.692 17c4.48-1.867 8.68-4.2 12.6-7 4.107-2.8 7.56-6.067 10.36-9.8h22.68V227h-29.96Z" fill="#F2F2F2"></path></svg><svg fill="none" id="how-it-works__item-bg-image-2" viewBox="0 0 113 229"><path d="M.625 229v-21.28l57.68-89.88c4.293-6.72 8.213-12.973 11.76-18.76 3.733-5.787 6.72-11.853 8.96-18.2 2.426-6.533 3.64-14 3.64-22.4 0-10.453-1.68-18.667-5.04-24.64-3.36-5.973-9.24-8.96-17.64-8.96-7.094 0-12.6 1.96-16.52 5.88s-6.627 9.053-8.12 15.4c-1.494 6.347-2.24 13.16-2.24 20.44v7.56H3.145v-7.84c0-13.627 1.773-25.293 5.32-35 3.733-9.893 9.613-17.547 17.64-22.96C34.318 2.947 45.145.24 58.584.24c18.293 0 31.92 5.227 40.88 15.68 8.96 10.267 13.44 24.547 13.44 42.84 0 9.707-1.214 18.2-3.64 25.48-2.24 7.28-5.227 14.093-8.96 20.44-3.734 6.347-7.84 12.88-12.32 19.6l-52.08 79.52h71.68V229H.625Z" fill="#F2F2F2"></path></svg><svg fill="none" id="how-it-works__item-bg-image-3" viewBox="0 0 112 232"><path d="M55.921 231.52c-12.32 0-22.586-2.333-30.8-7-8.213-4.667-14.373-11.387-18.48-20.16-4.106-8.773-6.16-19.133-6.16-31.08v-7.56h29.68v5.04c.187 6.72.934 12.787 2.24 18.2 1.494 5.413 4.014 9.707 7.56 12.88 3.734 3.173 9.054 4.76 15.96 4.76 7.28 0 12.787-1.68 16.52-5.04 3.734-3.547 6.254-8.493 7.56-14.84 1.307-6.347 1.96-13.627 1.96-21.84 0-11.947-2.24-21.653-6.72-29.12-4.293-7.653-11.946-11.853-22.96-12.6-.56-.187-1.306-.28-2.24-.28h-1.96V92.92h3.92c10.64-.373 18.294-3.173 22.96-8.4 4.667-5.227 7-13.907 7-26.04 0-10.267-1.773-18.48-5.32-24.64-3.36-6.16-10.173-9.24-20.44-9.24-10.266 0-17.08 3.453-20.44 10.36-3.36 6.72-5.226 15.4-5.6 26.04v4.76H.481V58.2c0-12.133 2.054-22.493 6.16-31.08 4.107-8.587 10.267-15.213 18.48-19.88 8.4-4.667 18.76-7 31.08-7 12.507 0 22.867 2.333 31.08 7 8.214 4.667 14.374 11.387 18.48 20.16 4.107 8.587 6.16 18.947 6.16 31.08 0 13.627-2.986 24.547-8.96 32.76-5.786 8.213-13.626 13.813-23.52 16.8 6.907 2.053 12.694 5.6 17.36 10.64 4.854 5.04 8.587 11.48 11.2 19.32 2.614 7.653 3.92 16.613 3.92 26.88 0 13.44-1.866 25.2-5.6 35.28-3.733 9.893-9.706 17.64-17.92 23.24-8.213 5.413-19.04 8.12-32.48 8.12Z" fill="#F2F2F2"></path></svg><svg fill="none" id="how-it-works__item-bg-image-4" viewBox="0 0 121 227"><path d="M66.324 227v-60.76H.524v-31.36L59.604.2h35.28v139.44h25.48v26.6h-25.48V227h-28.56Zm-36.96-87.36h36.96V36.6l-36.96 103.04Z" fill="#F2F2F2"></path></svg><svg fill="none" id="how-it-works__item-image-1" viewBox="0 0 61 60"><path fill="#68B738" d="M.5 0h60v60H.5z"></path><g clip-path="url(#how-it-works__item-image-1_0)"><path d="M43.344 16.767c-.1-.45-.48-.767-.912-.767h-.005c-4.938.033-16.945.916-21.793 8.38-2.518 3.878-2.735 8.913-.644 14.965.016.047.048.079.07.122-.747 1.973-1.037 3.286-1.044 3.323-.11.54.214 1.072.72 1.188a.88.88 0 0 0 .197.022c.433 0 .822-.321.916-.79.02-.102 2.409-10.373 10.854-16.378.431-.306.547-.927.26-1.387-.288-.46-.87-.585-1.3-.277-4.79 3.405-7.739 8.008-9.473 11.656-1.242-4.578-.916-8.377.986-11.305 3.743-5.764 12.622-7.154 17.982-7.448-1.153 1.801-2.413 5.103-2.413 10.929 0 3.12-.83 5.522-2.465 7.14-2.62 2.591-6.88 2.834-9.993 2.584-.518-.045-.967.371-1.006.922-.04.55.347 1.03.863 1.072.623.051 1.29.082 1.981.082 3.17 0 6.87-.663 9.43-3.194 2.034-2.011 3.065-4.906 3.065-8.605 0-9.099 3.216-11.096 3.232-11.105.39-.209.594-.677.492-1.129Z" fill="#fff"></path></g><defs><clipPath id="how-it-works__item-image-1_0"><path fill="#fff" transform="translate(15.5 14)" d="M0 0h30v32H0z"></path></clipPath></defs></svg><svg fill="none" id="how-it-works__item-image-2" viewBox="0 0 61 60"><path fill="#68B738" d="M.5 0h60v60H.5z"></path><path d="M28.875 16c-1.631 0-2.9 1.36-2.9 3.081 0 1.722 1.269 3.082 2.9 3.082s2.9-1.36 2.9-3.082c0-1.722-1.269-3.081-2.9-3.081Zm0 1.178c.997 0 1.722.843 1.722 1.903 0 .997-.789 1.903-1.722 1.903-.997 0-1.722-.842-1.722-1.903 0-.997.78-1.903 1.722-1.903ZM18 40.741c0 1.178.408 2.175 1.36 2.99.996.852 2.174.78 2.174.78h19.032c.779 0 1.812-.381 2.628-1.45.843-.997.788-2.357.788-2.357V23.486c0-.435-.109-.599-.743-.599s-.689.272-.689.59v17.218c-.018.3-.072 1.088-.743 1.722-.734.625-1.45.544-1.45.544s-18.125 0-19.031-.027c-.344-.064-.906-.19-1.45-.906-.508-.725-.408-1.632-.408-1.632V23.177c0-.462-.235-.634-.725-.634s-.743.172-.743.58v17.618Zm16.313-16.313c-1.088.236-2.175.38-4.26 2.356-2.084 1.994-3.625 1.904-5.166 1.813-1.54-.09-3.171-1.54-3.443-1.903-.336-.354-.906-.118-1.088.118-.154.235-.154.643.109.996 1.269 1.179 2.447 2.085 4.712 2.266 2.266.218 4.441-.807 5.891-2.266 1.45-1.45 2.175-1.721 3.263-1.903 2.628-.417 4.168.617 5.075 1.27.997 1.087 1.268.778 1.54.47.544-.716-.226-1.268-1.087-1.903-1.813-1.178-3.535-1.631-5.528-1.269l-.019-.045Zm-9.063 7.16c-1.178 0-2.084.996-2.084 2.265 0 1.269.906 2.266 2.084 2.266s2.084-.997 2.084-2.266c0-1.269-.906-2.266-2.084-2.266Zm11.781.779c-1.54 0-2.81 1.36-2.81 2.99 0 1.632 1.27 2.991 2.81 2.991s2.81-1.36 2.81-2.99c0-1.632-1.27-2.991-2.81-2.991Zm0 1.45c.798 0 1.45.698 1.45 1.54 0 .861-.652 1.541-1.45 1.541-.797 0-1.45-.698-1.45-1.54 0-.861.653-1.541 1.45-1.541Z" fill="#fff"></path></svg><svg fill="none" id="how-it-works__item-image-3" viewBox="0 0 61 60"><path fill="#68B738" d="M.5 0h60v60H.5z"></path><path fill-rule="evenodd" clip-rule="evenodd" d="M36.617 15.076a1 1 0 0 1 1.09.217c.909.908 2.097 2.878 3.059 5.918C41.737 24.28 42.5 28.508 42.5 34a1 1 0 0 1-1 1H38v9a1 1 0 1 1-2 0V16a1 1 0 0 1 .617-.924ZM38 33h2.491c-.086-4.816-.786-8.512-1.632-11.186-.278-.88-.57-1.642-.859-2.295V33ZM24 15a1 1 0 0 1 1 1v28a1 1 0 1 1-2 0V16a1 1 0 0 1 1-1Z" fill="#fff"></path><path fill-rule="evenodd" clip-rule="evenodd" d="M19.5 15a1 1 0 0 1 1 1v5.5c0 .557.192 1.315.7 1.917.48.566 1.315 1.083 2.8 1.083a1 1 0 1 1 0 2c-2.015 0-3.43-.733-4.326-1.792A5.068 5.068 0 0 1 18.5 21.5V16a1 1 0 0 1 1-1Z" fill="#fff"></path><path fill-rule="evenodd" clip-rule="evenodd" d="M28.5 15a1 1 0 0 0-1 1v5.5a3.07 3.07 0 0 1-.7 1.917c-.48.566-1.315 1.083-2.8 1.083a1 1 0 0 0 0 2c2.014 0 3.43-.733 4.326-1.792A5.068 5.068 0 0 0 29.5 21.5V16a1 1 0 0 0-1-1Z" fill="#fff"></path></svg><svg fill="none" id="how-it-works__item-image-4" viewBox="0 0 61 60"><path fill="#68B738" d="M.5 0h60v60H.5z"></path><path d="M23.538 15c-1.063 0-1.063 1.583 0 1.583h6.643v1.604C23.38 18.62 18 24.414 18 31.485c0 4.01 1.743 7.63 4.496 10.069.479.422.542 1.171.107 1.636l-1.531 1.551c-.744.686.361 1.752 1.031 1.003l1.998-2.037c.351-.338.872-.422 1.308-.211a12.702 12.702 0 0 0 11.065.063 1.14 1.14 0 0 1 1.297.211l1.934 1.974c.68.633 1.659-.317 1.042-1.003l-1.445-1.477c-.447-.454-.383-1.204.106-1.636a13.462 13.462 0 0 0 3.403-4.583A13.376 13.376 0 0 0 44 31.475c0-7.071-5.41-12.876-12.224-13.288v-1.604h6.643c1.063 0 1.063-1.583 0-1.583H23.538Zm-4.103 16.475c0-6.533 5.177-11.82 11.565-11.82 6.378 0 11.554 5.287 11.554 11.82 0 6.543-5.176 11.841-11.554 11.841s-11.565-5.298-11.565-11.841Zm10.757-8.095c0-1.098 1.658-1.098 1.658 0v8.633c0 .224-.09.439-.249.597a.853.853 0 0 1-.601.247.811.811 0 0 1-.568-.23.8.8 0 0 1-.24-.561V23.38Zm-4.974 2.617c.307 0 .601-.12.819-.337a1.146 1.146 0 0 0 0-1.627 1.163 1.163 0 0 0-.82-.337c-.286.028-.552.16-.746.372a1.146 1.146 0 0 0 0 1.547c.194.212.46.344.747.372v.01Zm11.554 0c.307 0 .602-.12.82-.337a1.146 1.146 0 0 0 0-1.627 1.163 1.163 0 0 0-.82-.337c-.287.028-.553.16-.747.372a1.145 1.145 0 0 0 0 1.547c.194.212.46.344.747.372v.01ZM26.376 38.588c0 1.53-2.317 1.53-2.317 0s2.317-1.53 2.317 0ZM31 42.028a1.169 1.169 0 0 0 .89-.293 1.153 1.153 0 0 0 .38-.851 1.145 1.145 0 0 0-.38-.852 1.162 1.162 0 0 0-1.637.078 1.146 1.146 0 0 0 0 1.547c.194.212.46.344.747.372Zm-8.09-10.384a1.142 1.142 0 0 1-.295.883 1.158 1.158 0 0 1-.857.377 1.166 1.166 0 0 1-.858-.377 1.15 1.15 0 0 1-.296-.883c.028-.285.161-.55.375-.742a1.163 1.163 0 0 1 1.558 0c.213.193.346.457.374.742Zm17.327 1.15a1.165 1.165 0 0 0 1.17-.68 1.144 1.144 0 0 0-.694-1.557 1.166 1.166 0 0 0-1.223.318 1.146 1.146 0 0 0 0 1.547c.194.212.46.345.747.372Zm-2.307 5.805c0 1.52-2.317 1.52-2.317-.01 0-1.531 2.317-1.531 2.317 0v.01Z" fill="#fff"></path></svg><svg fill="none" id="html-academy" viewBox="0 0 27 34"><path d="M13.643.016 13.5 0 0 1.407v24.606L13.5 34 27 26.013V1.407L13.643.016Zm11.591 25L13.5 31.956 1.766 25.015V14.93l11.685 6.916.02 1.253-8.017-4.743-.011 1.225 8.046 4.809.02 1.286-8.045-4.758-.01 1.226L13.5 26.95l8.124-4.833V16.91l3.62-2.15-.01 10.256Zm0-11.564-3.22 1.88-1.482.875-7.065-4.187-.011 1.225 6.04 3.573-.053.031-.13.076-.86.492-4.986-2.948-.011 1.225 3.936 2.328-.933.61-.021.012-2.971-1.742-.011 1.225 1.947 1.135-1.988 1.186-11.618-6.872 11.638-6.958 11.8 6.834Zm0-1.225L13.44 5.31 1.766 12.22V2.99L13.5 1.764 25.234 2.99v9.237Z" fill="#666"></path></svg><svg fill="none" id="phone" viewBox="0 0 20 20"><path d="M10 10h8.5m0 0L16 7.5m2.5 2.5L16 12.5m-7.5-10v5h-3v5h3v5H6c-1.5 0-2.5-1-2.5-2.5V5c0-1.5 1-2.5 2.5-2.5h2.5Z" stroke="#000" stroke-linecap="round" stroke-linejoin="round"></path></svg><svg fill="none" id="product-description-image-1" viewBox="0 0 50 53"><circle cx="25" cy="28" r="25" fill="#68B738"></circle><g clip-path="url(#product-description-image-1_0)"><path d="M35.203 0h-.195c-.33.187-.593.474-.75.82a8.028 8.028 0 0 0-.664 1.757.84.84 0 0 1-.761.691 3.77 3.77 0 0 0-2.69 1.948c-.372.661-.69 1.35-.952 2.062-.73 1.897-1.29 3.856-1.98 5.768-.324.872-.339.872-1.316.872-1.168 0-1.085-.18-1.1 1.108 0 .407.123.613.555.593.133 0 .334-.067.385.108.052.175-.123.252-.226.355a4.626 4.626 0 0 1-2.227 1.258c-.977.263-1.975.47-2.926.789-2.443.82-4.7 1.964-6.46 3.902a14.436 14.436 0 0 0-2.437 4.041c-1.888 4.454-2.803 9.145-3.513 13.882a97.062 97.062 0 0 0-.75 6.7C7.102 47.759 7 48.877 7 50h17.141a1.126 1.126 0 0 0-.118-.66 2.577 2.577 0 0 0-1.97-1.582c-.36-.083-.401-.191-.18-.475.36-.482.637-1.022.818-1.597.838-2.48 1.162-5.067 1.568-7.63.23-1.956.83-3.85 1.77-5.582a11.126 11.126 0 0 1 2.874-3.283c.427-.325.443-.325.515.227.051.366.061.742.087 1.113a48.166 48.166 0 0 1-.092 7.31 31.866 31.866 0 0 0-.078 5.67A38.826 38.826 0 0 0 30.503 50h6.84a2.79 2.79 0 0 0-2.18-2.289 4.62 4.62 0 0 0-1.934.103c-.309.073-.438 0-.463-.335a29.113 29.113 0 0 1 .514-8.154 91.803 91.803 0 0 0 1.574-9.371 9.163 9.163 0 0 1 1.172-3.609c.612-1.092 1.147-2.226 1.749-3.324a3.031 3.031 0 0 0 .216-2.676c-.139-.366-.273-.737-.442-1.087-.515-1.005-1.029-2-1.502-3.016-.252-.515-.196-.577.365-.593.838 0 .838 0 .854-.845v-.34c0-.356-.134-.552-.515-.516h-.781c-.355 0-.458-.149-.37-.515a3.217 3.217 0 0 1 2.638-2.284 11.291 11.291 0 0 1 3.404.222.513.513 0 0 0 .643-.33c.206-.515.432-1.03.664-1.546a.517.517 0 0 0-.052-.588c-1.646-2.093-3.43-4.046-5.863-5.299a.767.767 0 0 1-.452-.577 10.123 10.123 0 0 0-.653-2.144A1.803 1.803 0 0 0 35.203 0Z" fill="#000"></path></g><defs><clipPath id="product-description-image-1_0"><path fill="#fff" transform="translate(7)" d="M0 0h36v50H0z"></path></clipPath></defs></svg><svg fill="none" id="product-description-image-2" viewBox="0 0 67 50"><circle cx="34" cy="25" r="25" fill="#68B738"></circle><g clip-path="url(#product-description-image-2_0)"><path d="M61.56 13.878a7.602 7.602 0 0 1 2.25-2.3c.5-.35.8-.35 1.1.3.4.95.75 1.95.45 3a1.144 1.144 0 0 0 .2 1.05c.3.4.55.8.8 1.15a3.135 3.135 0 0 1 .45 3.1 2.716 2.716 0 0 0-.1 1.55c.099.495.099 1.005 0 1.5a1.875 1.875 0 0 1-1.35 1.6c-.64.122-1.211.479-1.6 1a.525.525 0 0 1-.45.25c-.6.1-2.1-1.25-2.1-1.85v-.3c.05-1.8-.05-1.95-1.7-2.7a2.195 2.195 0 0 1-.9-.6c-.3-.4-.7-.35-1.15-.2-.45.15-.7.45-.65.95.15 1.21.2 2.432.15 3.65a.94.94 0 0 0 .1.4c1.55 2.25 2.15 4.9 2.9 7.45.6 1.95 1.7 3 3.7 3.15.32.026.637.076.95.15a2.08 2.08 0 0 1 1.7 1.6c.35 1.05.15 1.3-.9 1.3h-3.25a1.62 1.62 0 0 1-1.15-.4 5.856 5.856 0 0 0-1.7-1 3.63 3.63 0 0 1-1.7-1.3 14.307 14.307 0 0 0-2-2.25c-1.4-1.45-2.9-2.85-4.2-4.35a5.69 5.69 0 0 1-1.6-3.8c0-.45-.1-.65-.6-.45a.965.965 0 0 1-.5.15c-1.4 0-2.1.85-2.6 2.1-.45 1.05-1.05 2.05-1.6 3.1a5.195 5.195 0 0 0-.5 2.1c0 1.2.3 1.6 1.4 2 .7.25 1.35.5 1.7 1.2.4.8.3 1-.55 1.05h-3.4a.94.94 0 0 1-.95-.55l-.9-1.5a3.025 3.025 0 0 1-.35-2.7 5.93 5.93 0 0 0 .05-2.65 4.21 4.21 0 0 1 .85-3.5c.3-.35.3-.5-.2-.6a25.03 25.03 0 0 1-5.9-2.05.05.05 0 0 1-.05-.05c-1.6-.6-1.9-.5-2.35 1.15-.4 1.4-.8 2.8-1.1 4.25-.35 1.6.05 3.1.55 4.6.2.6.8.55 1.25.7 1 .3 1.85.7 2.25 1.75.35.8.3.9-.55.9-.85 0-1.7-.05-2.6 0a3.32 3.32 0 0 1-2.1-.7c-2.4-1.6-3.1-4.05-3.3-6.7-.1-1.65-1-2.95-2.05-4.2-.2-.25-.4-.35-.7-.15a22.156 22.156 0 0 1-3.35 1.5 13.355 13.355 0 0 0-6.1 4.4 5.315 5.315 0 0 0-1.1 2.55c-.15.9.1 1.3 1 1.55s1.35.75 1.45 1.7c.05.4-.1.6-.5.6h-4.05a.824.824 0 0 1-.65-.4 4.28 4.28 0 0 1-.95-2.75 25.307 25.307 0 0 1 .45-5.15 3.152 3.152 0 0 1 1.7-2.4c2.95-1.4 4.5-4.05 5.9-6.8.3-.55.05-.65-.45-.6a8.236 8.236 0 0 0-3.85 1.6 35.317 35.317 0 0 0-4.15 3.55 8.335 8.335 0 0 1-5.15 2.45c-3.65.2-5.35-1.85-5.2-5.15a4.845 4.845 0 0 1 1.2-3.05 2.125 2.125 0 0 1 2.25-.75c.75.2.95.6.65 1.35-.15.3-.35.55-.5.85a3.751 3.751 0 0 0-.5 1c-.55 1.5.2 2.55 1.75 2.7 1.65.15 3-.55 4.25-1.55a22.466 22.466 0 0 0 4-4.15 10.396 10.396 0 0 1 7.2-4.05c1.15-.15 2.15-.65 3.25-.95 2.056-.627 4.199-.93 6.35-.9a6.5 6.5 0 0 0 2.9-.55c2.45-1 5-1 7.55-.5 2 .4 4 .9 5.95 1.4a8.288 8.288 0 0 0 3.5-.1 33.9 33.9 0 0 1 6.7-1 9.081 9.081 0 0 1 4.3.85c1 .45 1 .45.75 1.4Z" fill="#000"></path></g><defs><clipPath id="product-description-image-2_0"><path fill="#fff" transform="translate(0 11)" d="M0 0h67v28H0z"></path></clipPath></defs></svg><svg fill="none" id="product-description-image-arrow" viewBox="0 0 32 12"><path stroke="#000" stroke-width="2" d="M0 6h18"></path><path d="m24 6-6.75 5.196V.804L24 6Z" fill="#000"></path></svg><svg fill="none" id="product-description-image-desktop-1" viewBox="0 0 100 106"><circle cx="50" cy="56" r="50" fill="#68B738"></circle><g clip-path="url(#product-description-image-desktop-1_0)"><path d="M69.84 0h-.38A3.5 3.5 0 0 0 68 1.59 15.54 15.54 0 0 0 66.71 5a1.63 1.63 0 0 1-1.48 1.34A7.34 7.34 0 0 0 60 10.12a27.31 27.31 0 0 0-1.85 4c-1.42 3.68-2.51 7.48-3.85 11.19C53.67 27 53.64 27 51.74 27c-2.27 0-2.11-.35-2.14 2.15 0 .79.24 1.19 1.08 1.15.26 0 .65-.13.75.21.1.34-.24.49-.44.69a9 9 0 0 1-4.33 2.44c-1.9.51-3.84.91-5.69 1.53-4.75 1.59-9.14 3.81-12.56 7.57a28 28 0 0 0-4.74 7.84c-3.67 8.64-5.45 17.74-6.83 26.93-.65 4.31-1.11 8.64-1.46 13C15.2 92.65 15 94.82 15 97h33.33a2.18 2.18 0 0 0-.23-1.28 5 5 0 0 0-3.83-3.07c-.7-.16-.78-.37-.35-.92a10.348 10.348 0 0 0 1.59-3.1c1.63-4.81 2.26-9.83 3.05-14.8A30.001 30.001 0 0 1 52 63a21.6 21.6 0 0 1 5.59-6.37c.83-.63.86-.63 1 .44.1.71.12 1.44.17 2.16.3 4.724.24 9.465-.18 14.18a61.669 61.669 0 0 0-.15 11A75.16 75.16 0 0 0 60.7 97H74a5.41 5.41 0 0 0-4.24-4.44 9 9 0 0 0-3.76.2c-.6.14-.85 0-.9-.65a56.351 56.351 0 0 1 1-15.82 177.734 177.734 0 0 0 3.06-18.18 17.75 17.75 0 0 1 2.28-7c1.19-2.12 2.23-4.32 3.4-6.45a5.871 5.871 0 0 0 .42-5.19c-.27-.71-.53-1.43-.86-2.11-1-1.95-2-3.88-2.92-5.85-.49-1-.38-1.12.71-1.15 1.63 0 1.63 0 1.66-1.64v-.66c0-.69-.26-1.07-1-1h-1.52c-.69 0-.89-.29-.72-1a6.24 6.24 0 0 1 5.13-4.43 22 22 0 0 1 6.62.43 1 1 0 0 0 1.25-.64c.4-1 .84-2 1.29-3a1 1 0 0 0-.1-1.14C81.6 13.22 78.13 9.43 73.4 7a1.49 1.49 0 0 1-.88-1.12 19.599 19.599 0 0 0-1.27-4.16A3.5 3.5 0 0 0 69.84 0Z" fill="#000"></path></g><defs><clipPath id="product-description-image-desktop-1_0"><path fill="#fff" transform="translate(15)" d="M0 0h70v97H0z"></path></clipPath></defs></svg><svg fill="none" id="product-description-image-desktop-2" viewBox="0 0 134 100"><circle cx="69" cy="50" r="50" fill="#68B738"></circle><g clip-path="url(#product-description-image-desktop-2_0)"><path d="M123.118 25.757a15.206 15.206 0 0 1 4.5-4.6c1-.7 1.6-.7 2.2.6.8 1.9 1.5 3.9.9 6a2.288 2.288 0 0 0 .4 2.1c.6.8 1.1 1.6 1.6 2.3a6.266 6.266 0 0 1 .9 6.2 5.437 5.437 0 0 0-.2 3.1c.2.99.2 2.01 0 3a3.752 3.752 0 0 1-2.7 3.2 5.212 5.212 0 0 0-3.2 2 1.05 1.05 0 0 1-.9.5c-1.2.2-4.2-2.5-4.2-3.7v-.6c.1-3.6-.1-3.9-3.4-5.4a4.399 4.399 0 0 1-1.8-1.2c-.6-.8-1.4-.7-2.3-.4-.9.3-1.4.9-1.3 1.9.302 2.42.402 4.862.3 7.3.007.278.075.551.2.8 3.1 4.5 4.3 9.8 5.8 14.9 1.2 3.9 3.4 6 7.4 6.3.64.05 1.276.151 1.9.3a4.164 4.164 0 0 1 3.4 3.2c.7 2.1.3 2.6-1.8 2.6h-6.5a3.242 3.242 0 0 1-2.3-.8 11.71 11.71 0 0 0-3.4-2 7.263 7.263 0 0 1-3.4-2.6 28.581 28.581 0 0 0-4-4.5c-2.8-2.9-5.8-5.7-8.4-8.7a11.382 11.382 0 0 1-3.2-7.6c0-.9-.2-1.3-1.2-.9-.3.19-.645.294-1 .3-2.8 0-4.2 1.7-5.2 4.2-.9 2.1-2.1 4.1-3.2 6.2a10.39 10.39 0 0 0-1 4.2c0 2.4.6 3.2 2.8 4 1.4.5 2.7 1 3.4 2.4.8 1.6.6 2-1.1 2.1h-6.8a1.88 1.88 0 0 1-1.9-1.1l-1.8-3a6.049 6.049 0 0 1-.7-5.4 11.86 11.86 0 0 0 .1-5.3 8.42 8.42 0 0 1 1.7-7c.6-.7.6-1-.4-1.2a50.068 50.068 0 0 1-11.8-4.1.1.1 0 0 1-.1-.1c-3.2-1.2-3.8-1-4.7 2.3-.8 2.8-1.6 5.6-2.2 8.5-.7 3.2.1 6.2 1.1 9.2.4 1.2 1.6 1.1 2.5 1.4 2 .6 3.7 1.4 4.5 3.5.7 1.6.6 1.8-1.1 1.8-1.7 0-3.4-.1-5.2 0a6.641 6.641 0 0 1-4.2-1.4c-4.8-3.2-6.2-8.1-6.6-13.4-.2-3.3-2-5.9-4.1-8.4-.4-.5-.8-.7-1.4-.3a44.322 44.322 0 0 1-6.7 3 26.71 26.71 0 0 0-12.2 8.8 10.63 10.63 0 0 0-2.2 5.1c-.3 1.8.2 2.6 2 3.1s2.7 1.5 2.9 3.4c.1.8-.2 1.2-1 1.2h-8.1a1.65 1.65 0 0 1-1.3-.8 8.56 8.56 0 0 1-1.9-5.5c-.052-3.455.25-6.907.9-10.3a6.3 6.3 0 0 1 3.4-4.8c5.9-2.8 9-8.1 11.8-13.6.6-1.1.1-1.3-.9-1.2a16.47 16.47 0 0 0-7.7 3.2 70.622 70.622 0 0 0-8.3 7.1 16.67 16.67 0 0 1-10.3 4.9c-7.3.4-10.7-3.7-10.4-10.3a9.69 9.69 0 0 1 2.4-6.1 4.25 4.25 0 0 1 4.5-1.5c1.5.4 1.9 1.2 1.3 2.7-.3.6-.7 1.1-1 1.7a7.499 7.499 0 0 0-1 2c-1.1 3 .4 5.1 3.5 5.4 3.3.3 6-1.1 8.5-3.1a44.94 44.94 0 0 0 8-8.3 20.79 20.79 0 0 1 14.4-8.1c2.3-.3 4.3-1.3 6.5-1.9a41.508 41.508 0 0 1 12.7-1.8 13.002 13.002 0 0 0 5.8-1.1c4.9-2 10-2 15.1-1 4 .8 8 1.8 11.9 2.8 2.321.432 4.708.364 7-.2a67.788 67.788 0 0 1 13.4-2c2.963-.144 5.915.44 8.6 1.7 2 .9 2 .9 1.5 2.8Z" fill="#000"></path></g><defs><clipPath id="product-description-image-desktop-2_0"><path fill="#fff" transform="translate(0 20)" d="M0 0h134v56H0z"></path></clipPath></defs></svg><svg fill="none" id="product-description-image-tablet-1" viewBox="0 0 200 211"><circle cx="100" cy="111" r="100" fill="#68B738"></circle><g clip-path="url(#product-description-image-tablet-1_0)"><path d="M139.68 0h-.76A7 7 0 0 0 136 3.18a31.04 31.04 0 0 0-2.58 6.82 3.257 3.257 0 0 1-2.96 2.68A14.675 14.675 0 0 0 120 20.24a54.62 54.62 0 0 0-3.7 8c-2.84 7.36-5.02 14.96-7.7 22.38-1.26 3.38-1.32 3.38-5.12 3.38-4.54 0-4.22-.7-4.28 4.3 0 1.58.48 2.38 2.16 2.3.52 0 1.3-.26 1.5.42.2.68-.48.98-.88 1.38a18 18 0 0 1-8.66 4.88c-3.8 1.02-7.68 1.82-11.38 3.06-9.5 3.18-18.28 7.62-25.12 15.14a56 56 0 0 0-9.48 15.68c-7.34 17.28-10.9 35.48-13.66 53.86-1.3 8.62-2.22 17.28-2.92 26-.36 4.28-.76 8.62-.76 12.98h66.66c.11-.88-.05-1.773-.46-2.56a10.002 10.002 0 0 0-7.66-6.14c-1.4-.32-1.56-.74-.7-1.84a20.692 20.692 0 0 0 3.18-6.2c3.26-9.62 4.52-19.66 6.1-29.6A60.008 60.008 0 0 1 104 126a43.215 43.215 0 0 1 11.18-12.74c1.66-1.26 1.72-1.26 2 .88.2 1.42.24 2.88.34 4.32.6 9.449.48 18.93-.36 28.36a123.318 123.318 0 0 0-.3 22A150.344 150.344 0 0 0 121.4 194H148a10.817 10.817 0 0 0-8.48-8.88 18.007 18.007 0 0 0-7.52.4c-1.2.28-1.7 0-1.8-1.3a112.726 112.726 0 0 1 2-31.64 355.46 355.46 0 0 0 6.12-36.36 35.499 35.499 0 0 1 4.56-14c2.38-4.24 4.46-8.64 6.8-12.9a11.745 11.745 0 0 0 .84-10.38c-.54-1.42-1.06-2.86-1.72-4.22-2-3.9-4-7.76-5.84-11.7-.98-2-.76-2.24 1.42-2.3 3.26 0 3.26 0 3.32-3.28v-1.32c0-1.38-.52-2.14-2-2h-3.04c-1.38 0-1.78-.58-1.44-2a12.483 12.483 0 0 1 10.26-8.86 43.999 43.999 0 0 1 13.24.86 1.999 1.999 0 0 0 2.5-1.28c.8-2 1.68-4 2.58-6a1.997 1.997 0 0 0-.2-2.28c-6.4-8.12-13.34-15.7-22.8-20.56a2.977 2.977 0 0 1-1.76-2.24 39.163 39.163 0 0 0-2.54-8.32A7 7 0 0 0 139.68 0Z" fill="#000"></path></g><defs><clipPath id="product-description-image-tablet-1_0"><path fill="#fff" transform="translate(30)" d="M0 0h140v194H0z"></path></clipPath></defs></svg><svg fill="none" id="product-description-image-tablet-2" viewBox="0 0 268 200"><circle cx="134" cy="100" r="100" fill="#68B738"></circle><g clip-path="url(#product-description-image-tablet-2_0)"><path d="M246.236 55.514a30.402 30.402 0 0 1 9-9.2c2-1.4 3.2-1.4 4.4 1.2 1.6 3.8 3 7.8 1.8 12a4.59 4.59 0 0 0 .8 4.2c1.2 1.6 2.2 3.2 3.2 4.6a12.541 12.541 0 0 1 1.8 12.4 10.865 10.865 0 0 0-.4 6.2c.4 1.98.4 4.02 0 6a7.494 7.494 0 0 1-5.4 6.4 10.419 10.419 0 0 0-6.4 4c-.188.307-.453.56-.769.735-.315.176-.67.267-1.031.265-2.4.4-8.4-5-8.4-7.4v-1.2c.2-7.2-.2-7.8-6.8-10.8a8.783 8.783 0 0 1-3.6-2.4c-1.2-1.6-2.8-1.4-4.6-.8-1.8.6-2.8 1.8-2.6 3.8.604 4.841.804 9.725.6 14.6.014.556.15 1.103.4 1.6 6.2 9 8.6 19.6 11.6 29.8 2.4 7.8 6.8 12 14.8 12.6 1.281.102 2.551.302 3.8.6a8.318 8.318 0 0 1 6.8 6.4c1.4 4.2.6 5.2-3.6 5.2h-13a6.481 6.481 0 0 1-4.6-1.6 23.39 23.39 0 0 0-6.8-4 14.53 14.53 0 0 1-6.8-5.2 57.163 57.163 0 0 0-8-9c-5.6-5.8-11.6-11.4-16.8-17.4a22.77 22.77 0 0 1-6.4-15.2c0-1.8-.4-2.6-2.4-1.8a3.86 3.86 0 0 1-2 .6c-5.6 0-8.4 3.4-10.4 8.4-1.8 4.2-4.2 8.2-6.4 12.4a20.802 20.802 0 0 0-2 8.4c0 4.8 1.2 6.4 5.6 8 2.8 1 5.4 2 6.8 4.8 1.6 3.2 1.2 4-2.2 4.2h-13.6a3.762 3.762 0 0 1-3.8-2.2l-3.6-6a12.101 12.101 0 0 1-1.4-10.8c.866-3.473.934-7.097.2-10.6a16.842 16.842 0 0 1 3.4-14c1.2-1.4 1.2-2-.8-2.4a100.166 100.166 0 0 1-23.6-8.2.2.2 0 0 1-.2-.2c-6.4-2.4-7.6-2-9.4 4.6-1.6 5.6-3.2 11.2-4.4 17-1.4 6.4.2 12.4 2.2 18.4.8 2.4 3.2 2.2 5 2.8 4 1.2 7.4 2.8 9 7 1.4 3.2 1.2 3.6-2.2 3.6-3.4 0-6.8-.2-10.4 0a13.288 13.288 0 0 1-8.4-2.8c-9.6-6.4-12.4-16.2-13.2-26.8-.4-6.6-4-11.8-8.2-16.8-.8-1-1.6-1.4-2.8-.6a88.625 88.625 0 0 1-13.4 6 53.42 53.42 0 0 0-24.4 17.6 21.259 21.259 0 0 0-4.4 10.2c-.6 3.6.4 5.2 4 6.2s5.4 3 5.8 6.8c.2 1.6-.4 2.4-2 2.4h-16.2a3.301 3.301 0 0 1-2.6-1.6 17.121 17.121 0 0 1-3.8-11 101.19 101.19 0 0 1 1.8-20.6 12.6 12.6 0 0 1 6.8-9.6c11.8-5.6 18-16.2 23.6-27.2 1.2-2.2.2-2.6-1.8-2.4a32.94 32.94 0 0 0-15.4 6.4 141.23 141.23 0 0 0-16.6 14.2 33.342 33.342 0 0 1-20.6 9.8c-14.6.8-21.4-7.4-20.8-20.6a19.38 19.38 0 0 1 4.8-12.2 8.5 8.5 0 0 1 9-3c3 .8 3.8 2.4 2.6 5.4-.6 1.2-1.4 2.2-2 3.4a14.998 14.998 0 0 0-2 4c-2.2 6 .8 10.2 7 10.8 6.6.6 12-2.2 17-6.2a89.88 89.88 0 0 0 16-16.6 41.579 41.579 0 0 1 28.8-16.2c4.6-.6 8.6-2.6 13-3.8a83.014 83.014 0 0 1 25.4-3.6 25.996 25.996 0 0 0 11.6-2.2c9.8-4 20-4 30.2-2 8 1.6 16 3.6 23.8 5.6 4.642.865 9.415.728 14-.4a135.599 135.599 0 0 1 26.8-4 36.318 36.318 0 0 1 17.2 3.4c4 1.8 4 1.8 3 5.6Z" fill="#000"></path></g><defs><clipPath id="product-description-image-tablet-2_0"><path fill="#fff" transform="translate(0 44)" d="M0 0h268v112H0z"></path></clipPath></defs></svg><svg fill="none" id="telegram" viewBox="0 0 28 22"><path fill-rule="evenodd" clip-rule="evenodd" d="M23.46 3.153c.18.15.265.382.227.611l-2.626 15.757a.657.657 0 0 1-1.012.439l-7.878-5.253a.657.657 0 0 1-.149-.956l2.611-3.263-4.36 2.906a.657.657 0 0 1-.658.041L4.363 10.81a.657.657 0 0 1 .073-1.205l18.383-6.566a.657.657 0 0 1 .642.115Zm-17.134 7.17 3.536 1.768 7.561-5.041a.656.656 0 0 1 .877.956l-4.805 6.006 6.438 4.292L22.208 4.65 6.326 10.323Z" fill="#666"></path></svg><svg fill="none" id="vk" viewBox="0 0 27 17"><path d="M0 2.339C0 1.484.515 1.023 1.545.956l3.97.025a.52.52 0 0 1 .533.377c.409 1.257.866 2.343 1.372 3.257.506.913 1.168 1.965 1.985 3.156.071.15.187.226.346.226.125 0 .222-.059.293-.176l.08-.277.027-4.35c0-.302-.075-.503-.226-.604-.151-.1-.431-.176-.84-.226-.32-.05-.48-.235-.48-.553 0-.067.01-.118.027-.151C9.005.57 10.072.025 11.83.025L13.322 0c.675 0 1.234.16 1.678.478.444.318.666.821.666 1.509v5.708c.125.084.24.126.347.126.266 0 .497-.15.692-.453 1.954-2.582 3.011-4.308 3.17-5.18 0-.017.019-.059.054-.126.125-.251.329-.47.613-.654.284-.184.533-.31.746-.377a.554.554 0 0 1 .24-.05h4.13l.266.025c.355 0 .63.16.826.478.07.1.12.21.146.327.027.117.045.234.054.352.009.117.013.184.013.2v.177c-.124.687-.44 1.42-.946 2.2-.506.78-1.15 1.622-1.931 2.528-.782.905-1.27 1.5-1.466 1.785-.16.201-.24.386-.24.554 0 .134.071.285.213.452l3.89 4.627c.213.269.32.562.32.88 0 .386-.16.705-.48.956-.32.252-.701.394-1.145.428l-.453.025h-4.05a.855.855 0 0 0-.106.012.862.862 0 0 1-.107.013c-.39 0-.755-.16-1.092-.478-.125-.134-.96-1.123-2.505-2.967a1.387 1.387 0 0 0-.373-.327c-.07.268-.164.654-.28 1.157-.115.503-.2.863-.253 1.081l-.08.428c-.177.586-.55.938-1.119 1.056l-.373.025h-2.61c-1.475 0-2.945-.637-4.41-1.911-1.466-1.275-2.784-2.922-3.957-4.942C2.238 8.102 1.146 5.75.133 3.068A1.916 1.916 0 0 1 0 2.338Zm16.013 6.513c-.373 0-.71-.096-1.013-.29-.302-.192-.453-.456-.453-.791V1.987c0-.336-.089-.575-.266-.717-.178-.143-.489-.214-.933-.214l-1.518.05c-.764 0-1.341.126-1.732.378.781.352 1.172.922 1.172 1.71V7.62a1.5 1.5 0 0 1-.533 1.043 1.59 1.59 0 0 1-1.066.415c-.532 0-.94-.243-1.225-.729C7.06 6.371 6.03 4.493 5.356 2.716l-.24-.654-3.544-.025c-.231 0-.36.013-.386.038-.027.025-.04.096-.04.213 0 .151.017.31.053.478l.56 1.409c1.491 3.638 3.112 6.505 4.862 8.6 1.75 2.096 3.468 3.144 5.155 3.144h2.665c.106 0 .186-.03.24-.088.053-.06.097-.172.133-.34l.053-.251.506-2.213c.142-.302.267-.503.373-.604a.975.975 0 0 1 .693-.277c.426 0 .861.243 1.305.73l2.265 2.716c.142.218.293.327.453.327h4.396c.533 0 .8-.126.8-.378a.466.466 0 0 0-.08-.251l-3.864-4.552c-.302-.352-.453-.73-.453-1.131 0-.403.142-.788.427-1.157.23-.336.679-.893 1.345-1.673a37.63 37.63 0 0 0 1.745-2.188c.498-.679.826-1.295.986-1.848l.08-.327a.371.371 0 0 1-.027-.163.574.574 0 0 0-.026-.189h-4.183c-.267.1-.48.252-.64.453l-.16.478c-.444 1.156-1.607 2.942-3.49 5.356a1.892 1.892 0 0 1-1.305.503Z" fill="#666"></path></svg><svg fill="none" id="youtube" viewBox="0 0 24 19"><path d="m15.85 8.793-5.236-3.491a.655.655 0 0 0-1.014.545v6.982a.655.655 0 0 0 1.014.546l5.237-3.491a.654.654 0 0 0 0-1.091Zm-4.94 2.814V7.07l3.403 2.27-3.404 2.268Zm12.48-8.563a2.4 2.4 0 0 0-1.452-1.637C18.218-.022 12.251 0 12 0c-.25 0-6.218-.022-9.938 1.407A2.4 2.4 0 0 0 .61 3.044C.327 4.113 0 6.076 0 9.338c0 3.262.327 5.226.61 6.295a2.4 2.4 0 0 0 1.452 1.636c3.72 1.43 9.687 1.407 9.938 1.407h.076c.753 0 6.317-.043 9.862-1.407a2.4 2.4 0 0 0 1.451-1.636c.284-1.07.611-3.033.611-6.295s-.327-5.225-.61-6.294Zm-1.266 12.261a1.09 1.09 0 0 1-.655.742c-3.49 1.342-9.404 1.32-9.469 1.32-.066 0-5.978.022-9.47-1.32a1.09 1.09 0 0 1-.654-.742c-.261-1.003-.567-2.847-.567-5.967 0-3.12.306-4.963.567-5.967a1.09 1.09 0 0 1 .655-.742C6.02 1.287 11.934 1.31 12 1.31c.066 0 5.978-.022 9.47 1.32a1.092 1.092 0 0 1 .654.742c.262 1.004.567 2.847.567 5.967 0 3.12-.305 4.964-.567 5.968Z" fill="#666"></path></svg></svg>