<svg xmlns="http://www.w3.org/2000/svg">

  <style> :root svg:not(:target) { display: none } </style>

  <svg id="calculator__wrapper-image" width="124" height="56" viewBox="0 0 124 56" fill="none">
    <path fill-rule="evenodd" clip-rule="evenodd" d="M3 1H121C122.105 1 123 1.89543 123 3V53C123 54.1046 122.105 55 121 55H105V56H121C122.657 56 124 54.6569 124 53V3C124 1.34315 122.657 0 121 0H3C1.34315 0 0 1.34314 0 3V53C0 54.6569 1.34314 56 3 56H18V55H3C1.89543 55 1 54.1046 1 53V3C1 1.89543 1.89543 1 3 1Z" fill="#CDCDCD"/>
  </svg>

  <svg id="calculator__wrapper-image-tablet-1" width="162" height="72" viewBox="0 0 162 72" fill="none">
    <path fill-rule="evenodd" clip-rule="evenodd" d="M3 1H159C160.105 1 161 1.89543 161 3V69C161 70.1046 160.105 71 159 71H138V72H159C160.657 72 162 70.6569 162 69V3C162 1.34315 160.657 0 159 0H3C1.34315 0 0 1.34315 0 3V69C0 70.6569 1.34314 72 3 72H24V71H3C1.89543 71 1 70.1046 1 69V3C1 1.89543 1.89543 1 3 1Z" fill="#CDCDCD"/>
  </svg>

  <svg id="calculator__wrapper-image-tablet-2" width="162" height="72" viewBox="0 0 162 72" fill="none">
    <path fill-rule="evenodd" clip-rule="evenodd" d="M3 1H159C160.105 1 161 1.89543 161 3V69C161 70.1046 160.105 71 159 71H152V72H159C160.657 72 162 70.6569 162 69V3C162 1.34315 160.657 0 159 0H3C1.34315 0 0 1.34315 0 3V69C0 70.6569 1.34314 72 3 72H10V71H3C1.89543 71 1 70.1046 1 69V3C1 1.89543 1.89543 1 3 1Z" fill="#CDCDCD"/>
  </svg>

  <svg id="gift-icon" width="80" height="83" viewBox="0 0 80 83" fill="none">
    <path d="M65.657 35.8291H14.3907C12.5913 35.8291 11.1276 34.366 11.1276 32.5672V22.7947C11.1276 20.996 12.5913 19.5322 14.3907 19.5322H65.6563C67.4551 19.5322 68.9182 20.996 68.9182 22.7947V32.5678C68.9188 34.366 67.4557 35.8291 65.657 35.8291ZM14.3907 22.0322C13.977 22.0322 13.6276 22.3816 13.6276 22.7947V32.5678C13.6276 32.9878 13.9701 33.3297 14.3907 33.3297H65.6563C66.0763 33.3297 66.4182 32.9878 66.4182 32.5678V22.7947C66.4182 22.381 66.0688 22.0322 65.6563 22.0322H14.3907Z" fill="white"/>
    <path d="M58.5074 69.3078H21.5374C18.0736 69.3078 15.2555 66.4904 15.2555 63.026V34.5791C15.2555 33.8891 15.8155 33.3291 16.5055 33.3291C17.1955 33.3291 17.7555 33.8891 17.7555 34.5791V63.026C17.7555 65.1116 19.4524 66.8078 21.5374 66.8078H58.5074C60.5918 66.8078 62.288 65.1116 62.288 63.026V34.5791C62.288 33.8891 62.848 33.3291 63.538 33.3291C64.228 33.3291 64.788 33.8891 64.788 34.5791V63.026C64.788 66.4904 61.9705 69.3078 58.5074 69.3078Z" fill="white"/>
    <path d="M40.0231 69.3078C39.3331 69.3078 38.7731 68.7485 38.7731 68.0578V34.5791C38.7731 33.8891 39.3331 33.3291 40.0231 33.3291C40.7131 33.3291 41.2731 33.8891 41.2731 34.5791V68.0572C41.2731 68.7485 40.7137 69.3078 40.0231 69.3078Z" fill="white"/>
    <path d="M24.4219 22.0278C20.5094 19.9078 19.0494 15.0003 21.1675 11.0872C23.2844 7.17592 28.1912 5.7153 32.1056 7.83155C38.0687 11.0615 41.2887 20.0728 41.4225 20.4547L39.0644 21.284C39.0344 21.199 36.0262 12.7984 30.9162 10.0303C28.2131 8.56905 24.8269 9.5778 23.3662 12.2772C21.9044 14.979 22.9119 18.3665 25.6137 19.8297L24.4219 22.0278Z" fill="white"/>
    <path d="M55.6218 22.0277L54.4318 19.829C55.7412 19.1196 56.6956 17.944 57.1206 16.5184C57.545 15.0921 57.3881 13.5859 56.6787 12.2777C55.9712 10.9684 54.7962 10.0146 53.3706 9.59023C51.9443 9.16585 50.4393 9.3221 49.1306 10.0302C44.0206 12.7977 41.0125 21.1984 40.9825 21.2834L38.6243 20.454C38.7581 20.0721 41.9775 11.0609 47.9406 7.83148C49.8356 6.80523 52.0187 6.57898 54.0837 7.19398C56.1506 7.80835 57.8525 9.19148 58.8781 11.0871C59.905 12.9821 60.1318 15.164 59.5168 17.2309C58.9012 19.2971 57.5181 21.0002 55.6218 22.0277Z" fill="white"/>
    <path d="M63.538 52.5688H16.5055C15.8155 52.5688 15.2555 52.0088 15.2555 51.3188C15.2555 50.6288 15.8155 50.0688 16.5055 50.0688H63.538C64.228 50.0688 64.788 50.6288 64.788 51.3188C64.788 52.0088 64.2287 52.5688 63.538 52.5688Z" fill="white"/>
  </svg>

  <svg id="how-it-works__item-bg-image-1" width="71" height="227" viewBox="0 0 71 227" fill="none">
    <path d="M40.3722 227V39.4C40.1855 39.5867 38.0389 40.1467 33.9322 41.08C30.0122 42.0133 25.5322 42.9467 20.4922 43.88C15.4522 44.8133 10.9722 45.6533 7.05219 46.4C3.13219 47.1467 1.07885 47.52 0.892188 47.52V24.84C4.06552 24.0933 7.70552 23.0667 11.8122 21.76C16.1055 20.4533 20.3989 18.8667 24.6922 17C29.1722 15.1333 33.3722 12.8 37.2922 9.99999C41.3989 7.19999 44.8522 3.93332 47.6522 0.199983H70.3322V227H40.3722Z" fill="#F2F2F2"/>
  </svg>

  <svg id="how-it-works__item-bg-image-2" width="113" height="229" viewBox="0 0 113 229" fill="none">
    <path d="M0.624532 229V207.72L58.3045 117.84C62.5979 111.12 66.5179 104.867 70.0645 99.08C73.7979 93.2933 76.7845 87.2267 79.0245 80.88C81.4512 74.3467 82.6645 66.88 82.6645 58.48C82.6645 48.0267 80.9845 39.8133 77.6245 33.84C74.2645 27.8667 68.3845 24.88 59.9845 24.88C52.8912 24.88 47.3845 26.84 43.4645 30.76C39.5445 34.68 36.8379 39.8133 35.3445 46.16C33.8512 52.5067 33.1045 59.32 33.1045 66.6V74.16H3.14453V66.32C3.14453 52.6933 4.91787 41.0267 8.46453 31.32C12.1979 21.4267 18.0779 13.7733 26.1045 8.35999C34.3179 2.94666 45.1445 0.239991 58.5845 0.239991C76.8779 0.239991 90.5045 5.46666 99.4645 15.92C108.425 26.1867 112.905 40.4667 112.905 58.76C112.905 68.4667 111.691 76.96 109.265 84.24C107.025 91.52 104.038 98.3333 100.305 104.68C96.5712 111.027 92.4645 117.56 87.9845 124.28L35.9045 203.8H107.585V229H0.624532Z" fill="#F2F2F2"/>
  </svg>

  <svg id="how-it-works__item-bg-image-3" width="112" height="232" viewBox="0 0 112 232" fill="none">
    <path d="M55.9213 231.52C43.6013 231.52 33.3346 229.187 25.1213 224.52C16.9079 219.853 10.7479 213.133 6.64125 204.36C2.53458 195.587 0.481251 185.227 0.481251 173.28V165.72H30.1613C30.1613 166.467 30.1613 167.307 30.1613 168.24C30.1613 168.987 30.1613 169.827 30.1613 170.76C30.3479 177.48 31.0946 183.547 32.4013 188.96C33.8946 194.373 36.4146 198.667 39.9613 201.84C43.6946 205.013 49.0146 206.6 55.9213 206.6C63.2013 206.6 68.7079 204.92 72.4413 201.56C76.1746 198.013 78.6946 193.067 80.0013 186.72C81.3079 180.373 81.9613 173.093 81.9613 164.88C81.9613 152.933 79.7213 143.227 75.2413 135.76C70.9479 128.107 63.2946 123.907 52.2813 123.16C51.7213 122.973 50.9746 122.88 50.0413 122.88C49.2946 122.88 48.6413 122.88 48.0813 122.88V92.92C48.6413 92.92 49.2946 92.92 50.0413 92.92C50.7879 92.92 51.4413 92.92 52.0013 92.92C62.6413 92.5467 70.2946 89.7467 74.9613 84.52C79.6279 79.2933 81.9613 70.6133 81.9613 58.48C81.9613 48.2133 80.1879 40 76.6413 33.84C73.2813 27.68 66.4679 24.6 56.2013 24.6C45.9346 24.6 39.1213 28.0533 35.7613 34.96C32.4013 41.68 30.5346 50.36 30.1613 61C30.1613 61.7467 30.1613 62.5867 30.1613 63.52C30.1613 64.2667 30.1613 65.0133 30.1613 65.76H0.481251V58.2C0.481251 46.0667 2.53458 35.7067 6.64125 27.12C10.7479 18.5333 16.9079 11.9067 25.1213 7.23998C33.5213 2.57332 43.8813 0.239991 56.2013 0.239991C68.7079 0.239991 79.0679 2.57332 87.2813 7.23998C95.4946 11.9067 101.655 18.6267 105.761 27.4C109.868 35.9867 111.921 46.3467 111.921 58.48C111.921 72.1067 108.935 83.0267 102.961 91.24C97.1746 99.4533 89.3346 105.053 79.4413 108.04C86.3479 110.093 92.1346 113.64 96.8013 118.68C101.655 123.72 105.388 130.16 108.001 138C110.615 145.653 111.921 154.613 111.921 164.88C111.921 178.32 110.055 190.08 106.321 200.16C102.588 210.053 96.6146 217.8 88.4013 223.4C80.1879 228.813 69.3613 231.52 55.9213 231.52Z" fill="#F2F2F2"/>
  </svg>

  <svg id="how-it-works__item-bg-image-4" width="121" height="227" viewBox="0 0 121 227" fill="none">
    <path d="M66.3242 227V166.24H0.52422V134.88L59.6042 0.199983H94.8842V139.64H120.364V166.24H94.8842V227H66.3242ZM29.3642 139.64H66.3242V36.6L29.3642 139.64Z" fill="#F2F2F2"/>
  </svg>

  <svg id="how-it-works__item-image-1" width="61" height="60" viewBox="0 0 61 60" fill="none">
    <rect x="0.5" width="60" height="60" fill="#68B738"/>
    <g clip-path="url(#clip0_95_18)">
    <path d="M43.3438 16.767C43.2434 16.317 42.8647 16 42.4325 16C42.4306 16 42.4288 16 42.4269 16C37.4891 16.033 25.4816 16.916 20.6337 24.38C18.1156 28.258 17.8991 33.293 19.9897 39.345C20.0056 39.392 20.0384 39.424 20.06 39.467C19.3128 41.44 19.0231 42.753 19.0156 42.79C18.9069 43.33 19.2303 43.862 19.7366 43.978C19.8022 43.993 19.8678 44 19.9334 44C20.3656 44 20.7547 43.679 20.8494 43.21C20.8691 43.108 23.2578 32.837 31.7028 26.832C32.1341 26.526 32.2503 25.905 31.9625 25.445C31.6747 24.985 31.0934 24.86 30.6622 25.168C25.8734 28.573 22.9241 33.176 21.1897 36.824C19.9484 32.246 20.2737 28.447 22.1759 25.519C25.9194 19.755 34.7984 18.365 40.1581 18.071C39.005 19.872 37.745 23.174 37.745 29C37.745 32.12 36.9153 34.522 35.2803 36.14C32.6591 38.731 28.4009 38.974 25.2866 38.724C24.7691 38.679 24.32 39.095 24.2806 39.646C24.2412 40.196 24.6284 40.676 25.1441 40.718C25.7675 40.769 26.4331 40.8 27.125 40.8C30.2956 40.8 33.9941 40.137 36.5544 37.606C38.5888 35.595 39.62 32.7 39.62 29.001C39.62 19.902 42.8356 17.905 42.8516 17.896C43.2416 17.687 43.4459 17.219 43.3438 16.767Z" fill="white"/>
    </g>
    <defs>
    <clipPath id="clip0_95_18">
    <rect width="30" height="32" fill="white" transform="translate(15.5 14)"/>
    </clipPath>
    </defs>
  </svg>

  <svg id="how-it-works__item-image-2" width="61" height="60" viewBox="0 0 61 60" fill="none">
    <rect x="0.5" width="60" height="60" fill="#68B738"/>
    <path d="M28.875 16C27.2437 16 25.975 17.3594 25.975 19.0812C25.975 20.8031 27.2437 22.1625 28.875 22.1625C30.5063 22.1625 31.775 20.8031 31.775 19.0812C31.775 17.3594 30.5063 16 28.875 16ZM28.875 17.1781C29.8719 17.1781 30.5969 18.0209 30.5969 19.0812C30.5969 20.0781 29.8084 20.9844 28.875 20.9844C27.8781 20.9844 27.1531 20.1416 27.1531 19.0812C27.1531 18.0844 27.9325 17.1781 28.875 17.1781ZM18 40.7406C18 41.9188 18.4078 42.9156 19.3594 43.7313C20.3563 44.5831 21.5344 44.5106 21.5344 44.5106H40.5656C41.345 44.5106 42.3781 44.13 43.1937 43.0606C44.0366 42.0638 43.9822 40.7044 43.9822 40.7044V23.4856C43.9822 23.0506 43.8734 22.8875 43.2391 22.8875C42.6047 22.8875 42.5503 23.1594 42.5503 23.4766V40.6953C42.5322 40.9944 42.4778 41.7828 41.8072 42.4172C41.0731 43.0425 40.3572 42.9609 40.3572 42.9609C40.3572 42.9609 22.2322 42.9609 21.3259 42.9338C20.9816 42.8703 20.4197 42.7434 19.8759 42.0275C19.3684 41.3025 19.4681 40.3962 19.4681 40.3962V23.1775C19.4681 22.7153 19.2325 22.5431 18.7431 22.5431C18.2538 22.5431 18 22.7153 18 23.1231V40.7406ZM34.3125 24.4281C33.225 24.6637 32.1375 24.8088 30.0531 26.7844C27.9688 28.7781 26.4281 28.6875 24.8875 28.5969C23.3469 28.5063 21.7156 27.0563 21.4438 26.6938C21.1084 26.3403 20.5375 26.5759 20.3562 26.8116C20.2022 27.0472 20.2022 27.455 20.465 27.8084C21.7338 28.9866 22.9119 29.8928 25.1775 30.0741C27.4431 30.2916 29.6181 29.2675 31.0681 27.8084C32.5181 26.3584 33.2431 26.0866 34.3306 25.9053C36.9587 25.4884 38.4994 26.5216 39.4056 27.1741C40.4025 28.2616 40.6744 27.9534 40.9462 27.6453C41.49 26.9294 40.7197 26.3766 39.8588 25.7422C38.0463 24.5641 36.3244 24.1109 34.3306 24.4734L34.3125 24.4281ZM25.25 31.5875C24.0719 31.5875 23.1656 32.5844 23.1656 33.8531C23.1656 35.1219 24.0719 36.1188 25.25 36.1188C26.4281 36.1188 27.3344 35.1219 27.3344 33.8531C27.3344 32.5844 26.4281 31.5875 25.25 31.5875ZM37.0312 32.3669C35.4906 32.3669 34.2219 33.7262 34.2219 35.3575C34.2219 36.9888 35.4906 38.3481 37.0312 38.3481C38.5719 38.3481 39.8406 36.9888 39.8406 35.3575C39.8406 33.7262 38.5719 32.3669 37.0312 32.3669ZM37.0312 33.8169C37.8288 33.8169 38.4813 34.5147 38.4813 35.3575C38.4813 36.2184 37.8288 36.8981 37.0312 36.8981C36.2337 36.8981 35.5812 36.2003 35.5812 35.3575C35.5812 34.4966 36.2337 33.8169 37.0312 33.8169Z" fill="white"/>
  </svg>

  <svg id="how-it-works__item-image-3" width="61" height="60" viewBox="0 0 61 60" fill="none">
    <rect x="0.5" width="60" height="60" fill="#68B738"/>
    <path fill-rule="evenodd" clip-rule="evenodd" d="M36.6173 15.0761C36.991 14.9214 37.4211 15.0069 37.7071 15.2929C38.6156 16.2014 39.8038 18.1706 40.7659 21.2108C41.7373 24.2804 42.5 28.5081 42.5 34C42.5 34.5523 42.0523 35 41.5 35H38V44C38 44.5523 37.5523 45 37 45C36.4477 45 36 44.5523 36 44V16C36 15.5956 36.2436 15.2309 36.6173 15.0761ZM38 33H40.4912C40.4053 28.1836 39.7051 24.4875 38.8591 21.8142C38.5807 20.9346 38.2885 20.1715 38 19.519V33Z" fill="white"/>
    <path fill-rule="evenodd" clip-rule="evenodd" d="M24 15C24.5523 15 25 15.4477 25 16V44C25 44.5523 24.5523 45 24 45C23.4477 45 23 44.5523 23 44V16C23 15.4477 23.4477 15 24 15Z" fill="white"/>
    <path fill-rule="evenodd" clip-rule="evenodd" d="M19.5 15C20.0523 15 20.5 15.4477 20.5 16V21.5C20.5 22.0569 20.692 22.8152 21.2009 23.4166C21.68 23.9828 22.5145 24.5 23.9999 24.5C24.5522 24.5 24.9999 24.9477 24.9999 25.5C24.9999 26.0523 24.5522 26.5 23.9999 26.5C21.9855 26.5 20.57 25.7672 19.6741 24.7084C18.808 23.6848 18.5 22.4431 18.5 21.5V16C18.5 15.4477 18.9477 15 19.5 15Z" fill="white"/>
    <path fill-rule="evenodd" clip-rule="evenodd" d="M28.5 15C27.9477 15 27.5 15.4477 27.5 16V21.5C27.5 22.0569 27.308 22.8152 26.7991 23.4166C26.32 23.9828 25.4854 24.5 23.9999 24.5C23.4476 24.5 23.0001 24.9477 23.0001 25.5C23.0001 26.0523 23.4476 26.5 23.9999 26.5C26.0144 26.5 27.43 25.7672 28.3259 24.7084C29.192 23.6848 29.5 22.4431 29.5 21.5V16C29.5 15.4477 29.0523 15 28.5 15Z" fill="white"/>
  </svg>

  <svg id="how-it-works__item-image-4" width="61" height="60" viewBox="0 0 61 60" fill="none">
    <rect x="0.5" width="60" height="60" fill="#68B738"/>
    <path d="M23.538 15C22.475 15 22.475 16.5831 23.538 16.5831H30.1815V18.1873C23.3786 18.62 18 24.4142 18 31.4854C18 35.4959 19.7432 39.1159 22.4963 41.5539C22.9746 41.976 23.0384 42.7254 22.6026 43.1897L21.0719 44.7412C20.3279 45.4272 21.4333 46.4931 22.103 45.7438L24.1014 43.7069C24.4521 43.3692 24.973 43.2847 25.4088 43.4958C27.1274 44.3397 29.0169 44.784 30.9341 44.795C32.8513 44.8059 34.7459 44.3833 36.4742 43.5591C36.8993 43.348 37.4308 43.4325 37.771 43.7702L39.7055 45.7438C40.3858 46.377 41.3638 45.4272 40.7472 44.7412L39.3016 43.2636C38.8552 42.8098 38.919 42.0605 39.4079 41.6277C40.8584 40.3585 42.0186 38.7959 42.8106 37.0447C43.6026 35.2936 44.0081 33.3944 43.9999 31.4748C43.9999 24.4036 38.5894 18.5989 31.7759 18.1873V16.5831H38.4194C39.4823 16.5831 39.4823 15 38.4194 15H23.538ZM19.435 31.4748C19.435 24.9419 24.6116 19.6543 30.9999 19.6543C37.3777 19.6543 42.5543 24.9419 42.5543 31.4748C42.5543 38.0183 37.3777 43.3164 30.9999 43.3164C24.6222 43.3164 19.435 38.0183 19.435 31.4748ZM30.1921 23.3799C30.1921 22.2823 31.8503 22.2823 31.8503 23.3799V32.0131C31.8503 32.237 31.7607 32.4517 31.6012 32.6101C31.4418 32.7684 31.2255 32.8574 30.9999 32.8574C30.7875 32.8574 30.5836 32.7743 30.4324 32.6262C30.2812 32.478 30.1949 32.2767 30.1921 32.0658V23.3799ZM25.2175 25.9973C25.5247 25.9973 25.8194 25.8761 26.0367 25.6603C26.254 25.4446 26.3761 25.152 26.3761 24.8469C26.3761 24.5418 26.254 24.2492 26.0367 24.0334C25.8194 23.8177 25.5247 23.6965 25.2175 23.6965C24.9307 23.7239 24.6645 23.8563 24.4707 24.0681C24.277 24.2798 24.1697 24.5556 24.1697 24.8416C24.1697 25.1277 24.277 25.4034 24.4707 25.6152C24.6645 25.8269 24.9307 25.9593 25.2175 25.9867V25.9973ZM36.7718 25.9973C37.0791 25.9973 37.3738 25.8761 37.5911 25.6603C37.8083 25.4446 37.9304 25.152 37.9304 24.8469C37.9304 24.5418 37.8083 24.2492 37.5911 24.0334C37.3738 23.8177 37.0791 23.6965 36.7718 23.6965C36.485 23.7239 36.2188 23.8563 36.0251 24.0681C35.8313 24.2798 35.724 24.5556 35.724 24.8416C35.724 25.1277 35.8313 25.4034 36.0251 25.6152C36.2188 25.8269 36.485 25.9593 36.7718 25.9867V25.9973ZM26.3761 38.5882C26.3761 40.1185 24.0588 40.1185 24.0588 38.5882C24.0588 37.0579 26.3761 37.0579 26.3761 38.5882ZM30.9999 42.0288C31.1607 42.0441 31.3229 42.0259 31.4762 41.9754C31.6294 41.9248 31.7703 41.843 31.8899 41.7352C32.0094 41.6273 32.1049 41.4959 32.1703 41.3493C32.2356 41.2026 32.2694 41.044 32.2694 40.8837C32.2694 40.7233 32.2356 40.5648 32.1703 40.4181C32.1049 40.2715 32.0094 40.14 31.8899 40.0322C31.7703 39.9244 31.6294 39.8426 31.4762 39.792C31.3229 39.7414 31.1607 39.7232 30.9999 39.7386C30.7132 39.7659 30.4469 39.8984 30.2532 40.1101C30.0595 40.3219 29.9522 40.5976 29.9522 40.8837C29.9522 41.1697 30.0595 41.4455 30.2532 41.6572C30.4469 41.869 30.7132 42.0014 30.9999 42.0288ZM22.9109 31.6437C22.9263 31.8033 22.908 31.9643 22.857 32.1165C22.8061 32.2687 22.7237 32.4086 22.6151 32.5273C22.5065 32.646 22.3741 32.7408 22.2264 32.8057C22.0788 32.8706 21.919 32.9041 21.7575 32.9041C21.596 32.9041 21.4363 32.8706 21.2886 32.8057C21.141 32.7408 21.0086 32.646 20.9 32.5273C20.7914 32.4086 20.709 32.2687 20.658 32.1165C20.6071 31.9643 20.5888 31.8033 20.6042 31.6437C20.6318 31.3589 20.7652 31.0946 20.9785 30.9023C21.1917 30.7099 21.4695 30.6033 21.7575 30.6033C22.0456 30.6033 22.3234 30.7099 22.5366 30.9023C22.7499 31.0946 22.8833 31.3589 22.9109 31.6437ZM40.237 32.794C40.3978 32.8094 40.56 32.7912 40.7132 32.7406C40.8665 32.6901 41.0074 32.6082 41.127 32.5004C41.2465 32.3926 41.342 32.2611 41.4074 32.1145C41.4727 31.9679 41.5065 31.8093 41.5065 31.6489C41.5065 31.4886 41.4727 31.33 41.4074 31.1834C41.342 31.0367 41.2465 30.9053 41.127 30.7975C41.0074 30.6896 40.8665 30.6078 40.7132 30.5573C40.56 30.5067 40.3978 30.4885 40.237 30.5038C39.9502 30.5312 39.684 30.6637 39.4903 30.8754C39.2966 31.0871 39.1892 31.3629 39.1892 31.6489C39.1892 31.935 39.2966 32.2108 39.4903 32.4225C39.684 32.6342 39.9502 32.7667 40.237 32.794ZM37.9304 38.5987C37.9304 40.1185 35.6132 40.1185 35.6132 38.5882C35.6132 37.0579 37.9304 37.0579 37.9304 38.5882V38.5987Z" fill="white"/>
  </svg>

  <svg id="html-academy" width="27" height="34" viewBox="0 0 27 34" fill="none">
    <path d="M13.6426 0.0157537L13.5 0L0 1.40733V26.0129L13.5 34L27 26.0129V1.40733L13.6426 0.0157537ZM25.2344 25.0151L13.5 31.9573L1.76561 25.0151V14.9293L13.4507 21.8451L13.4701 23.0984L5.45351 18.3548L5.44295 19.5801L13.4894 24.3885L13.5088 25.675L5.46408 20.9174L5.45351 22.1427L13.5 26.9511L21.6239 22.1182V20.8929V16.909L25.2432 14.7595L25.2344 25.0151ZM25.2344 13.4519L22.0147 15.3319L20.5325 16.2071L13.4666 12.0201L13.456 13.2454L19.4957 16.818L19.4429 16.8495L19.3126 16.9247L18.4536 17.4166L13.4666 14.4689L13.456 15.6942L17.3921 18.0222L16.4591 18.6314L16.438 18.6436L13.4666 16.902L13.456 18.1273L15.4029 19.2615L13.4155 20.4483L1.7973 13.5762L13.4349 6.61831L25.2344 13.4519ZM25.2344 12.2266L13.4401 5.31075L1.76561 12.2196V2.9897L13.5 1.76442L25.2344 2.9897V12.2266Z" fill="#666666"/>
  </svg>

  <svg id="product-description-image-1" width="50" height="53" viewBox="0 0 50 53" fill="none">
    <circle cx="25" cy="28" r="25" fill="#68B738"/>
    <g clip-path="url(#clip0_87709_565)">
    <path d="M35.2034 0H35.008C34.6778 0.187081 34.415 0.473924 34.2571 0.819588C33.968 1.37738 33.7453 1.96735 33.5937 2.57732C33.5612 2.76073 33.4688 2.92811 33.331 3.05315C33.1932 3.17818 33.0179 3.25377 32.8326 3.26804C32.2658 3.36597 31.7288 3.59243 31.2626 3.93012C30.7965 4.26781 30.4135 4.7078 30.1429 5.21649C29.7708 5.87697 29.4526 6.5665 29.1914 7.27835C28.4611 9.17526 27.9006 11.134 27.2114 13.0464C26.8874 13.9175 26.872 13.9175 25.8949 13.9175C24.7274 13.9175 24.8097 13.7371 24.7943 15.0258C24.7943 15.433 24.9177 15.6392 25.3497 15.6186C25.4834 15.6186 25.684 15.5515 25.7354 15.7268C25.7869 15.9021 25.612 15.9794 25.5091 16.0825C24.8994 16.7029 24.1276 17.1388 23.2823 17.3402C22.3051 17.6031 21.3074 17.8093 20.356 18.1289C17.9131 18.9485 15.6554 20.0928 13.8966 22.0309C12.8681 23.2347 12.0445 24.6001 11.4589 26.0722C9.57143 30.5258 8.656 35.2165 7.94629 39.9536C7.612 42.1753 7.37543 44.4072 7.19543 46.6546C7.10286 47.7577 7 48.8763 7 50H24.1411C24.1696 49.7731 24.1283 49.543 24.0229 49.3402C23.858 48.9289 23.5901 48.5672 23.2451 48.29C22.9 48.0128 22.4895 47.8295 22.0531 47.7577C21.6931 47.6753 21.652 47.567 21.8731 47.2835C22.2338 46.801 22.5103 46.2607 22.6909 45.6856C23.5291 43.2062 23.8531 40.6186 24.2594 38.0567C24.4889 36.0999 25.0894 34.2051 26.0286 32.4742C26.7611 31.2002 27.7382 30.0842 28.9034 29.1907C29.3303 28.866 29.3457 28.866 29.4177 29.4175C29.4691 29.7835 29.4794 30.1598 29.5051 30.5309C29.6595 32.9662 29.6285 35.4097 29.4126 37.8402C29.2184 39.7242 29.1926 41.6217 29.3354 43.5103C29.5399 45.7029 29.9304 47.8739 30.5029 50H37.3429C37.2536 49.442 36.9973 48.9243 36.6078 48.5156C36.2184 48.1069 35.7143 47.8264 35.1623 47.7113C34.5177 47.6087 33.8587 47.6438 33.2286 47.8144C32.92 47.8866 32.7914 47.8144 32.7657 47.4794C32.5529 44.7505 32.7261 42.0051 33.28 39.3247C33.966 36.2304 34.4912 33.1025 34.8537 29.9536C34.9887 28.6819 35.3881 27.4528 36.0263 26.3454C36.6383 25.2526 37.1731 24.1186 37.7749 23.0206C38.0138 22.6214 38.1575 22.1723 38.195 21.7083C38.2325 21.2443 38.1626 20.7779 37.9909 20.3454C37.852 19.9794 37.7183 19.6082 37.5486 19.2577C37.0343 18.2526 36.52 17.2577 36.0469 16.2423C35.7949 15.7268 35.8514 15.6649 36.412 15.6495C37.2503 15.6495 37.2503 15.6495 37.2657 14.8041C37.2657 14.6907 37.2657 14.5773 37.2657 14.4639C37.2657 14.1082 37.132 13.9124 36.7514 13.9485C36.4943 13.9485 36.2371 13.9485 35.9697 13.9485C35.6149 13.9485 35.512 13.799 35.5994 13.433C35.7729 12.838 36.1142 12.306 36.5823 11.9009C37.0503 11.4958 37.6252 11.2349 38.2377 11.1495C39.3772 11.0505 40.5251 11.1252 41.6423 11.3711C41.7712 11.4118 41.9109 11.4001 42.0312 11.3383C42.1515 11.2766 42.2427 11.1699 42.2851 11.0412C42.4909 10.5258 42.7171 10.0103 42.9486 9.49484C43.001 9.40339 43.0242 9.29801 43.015 9.19293C43.0058 9.08785 42.9647 8.98812 42.8971 8.90722C41.2514 6.81443 39.4669 4.86082 37.0343 3.60825C36.9168 3.55754 36.8138 3.47814 36.7347 3.3773C36.6557 3.27646 36.6031 3.15738 36.5817 3.03093C36.444 2.29408 36.225 1.57487 35.9286 0.886598C35.7895 0.519904 35.5349 0.20865 35.2034 0V0Z" fill="black"/>
    </g>
    <defs>
    <clipPath id="clip0_87709_565">
    <rect width="36" height="50" fill="white" transform="translate(7)"/>
    </clipPath>
    </defs>
  </svg>

  <svg id="product-description-image-2" width="67" height="50" viewBox="0 0 67 50" fill="none">
    <circle cx="34" cy="25" r="25" fill="#68B738"/>
    <g clip-path="url(#clip0_95_1)">
    <path d="M61.5591 13.8784C62.1364 12.96 62.9036 12.1757 63.8091 11.5784C64.3091 11.2284 64.6091 11.2284 64.9091 11.8784C65.3091 12.8284 65.6591 13.8284 65.3591 14.8784C65.3045 15.0565 65.2942 15.2452 65.3291 15.4282C65.3639 15.6112 65.4429 15.7829 65.5591 15.9284C65.8591 16.3284 66.1091 16.7284 66.3591 17.0784C66.6994 17.5103 66.9201 18.0241 66.9991 18.5682C67.078 19.1123 67.0125 19.6676 66.8091 20.1784C66.6256 20.6743 66.5908 21.213 66.7091 21.7284C66.809 22.2234 66.809 22.7334 66.7091 23.2284C66.6687 23.5991 66.5187 23.9494 66.2782 24.2344C66.0377 24.5194 65.7177 24.7262 65.3591 24.8284C64.7196 24.9501 64.1488 25.3069 63.7591 25.8284C63.7119 25.9052 63.6457 25.9686 63.5669 26.0124C63.488 26.0562 63.3993 26.0789 63.3091 26.0784C62.7091 26.1784 61.2091 24.8284 61.2091 24.2284V23.9284C61.2591 22.1284 61.1591 21.9784 59.5091 21.2284C59.1638 21.1066 58.8544 20.9004 58.6091 20.6284C58.3091 20.2284 57.9091 20.2784 57.4591 20.4284C57.0091 20.5784 56.7591 20.8784 56.8091 21.3784C56.9599 22.5889 57.0101 23.8097 56.9591 25.0284C56.9624 25.1675 56.9966 25.3041 57.0591 25.4284C58.6091 27.6784 59.2091 30.3284 59.9591 32.8784C60.5591 34.8284 61.6591 35.8784 63.6591 36.0284C63.9792 36.054 64.2968 36.1041 64.6091 36.1784C65.02 36.2444 65.4017 36.4322 65.7048 36.7174C66.0078 37.0027 66.2183 37.3723 66.3091 37.7784C66.6591 38.8284 66.4591 39.0784 65.4091 39.0784H62.1591C61.7384 39.0997 61.3259 38.9562 61.0091 38.6784C60.5031 38.2514 59.9282 37.9132 59.3091 37.6784C58.6247 37.4258 58.0323 36.9728 57.6091 36.3784C57.0234 35.5602 56.3531 34.806 55.6091 34.1284C54.2091 32.6784 52.7091 31.2784 51.4091 29.7784C50.4195 28.7563 49.8486 27.4006 49.8091 25.9784C49.8091 25.5284 49.7091 25.3284 49.2091 25.5284C49.0594 25.6234 48.8864 25.6753 48.7091 25.6784C47.3091 25.6784 46.6091 26.5284 46.1091 27.7784C45.6591 28.8284 45.0591 29.8284 44.5091 30.8784C44.1972 31.5357 44.0269 32.2511 44.0091 32.9784C44.0091 34.1784 44.3091 34.5784 45.4091 34.9784C46.1091 35.2284 46.7591 35.4784 47.1091 36.1784C47.5091 36.9784 47.4091 37.1784 46.5591 37.2284H43.1591C42.9631 37.2478 42.7659 37.2052 42.5955 37.1065C42.425 37.0078 42.2899 36.8581 42.2091 36.6784L41.3091 35.1784C41.0438 34.7871 40.874 34.3389 40.8132 33.87C40.7524 33.4011 40.8024 32.9245 40.9591 32.4784C41.1755 31.6102 41.1926 30.7042 41.0091 29.8284C40.8831 29.2185 40.8939 28.5882 41.0409 27.9829C41.1879 27.3777 41.4674 26.8126 41.8591 26.3284C42.1591 25.9784 42.1591 25.8284 41.6591 25.7284C39.6146 25.2941 37.6325 24.6054 35.7591 23.6784C35.7459 23.6784 35.7331 23.6732 35.7238 23.6638C35.7144 23.6544 35.7091 23.6417 35.7091 23.6284C34.1091 23.0284 33.8091 23.1284 33.3591 24.7784C32.9591 26.1784 32.5591 27.5784 32.2591 29.0284C31.9091 30.6284 32.3091 32.1284 32.8091 33.6284C33.0091 34.2284 33.6091 34.1784 34.0591 34.3284C35.0591 34.6284 35.9091 35.0284 36.3091 36.0784C36.6591 36.8784 36.6091 36.9784 35.7591 36.9784C34.9091 36.9784 34.0591 36.9284 33.1591 36.9784C32.3997 36.9922 31.6584 36.7451 31.0591 36.2784C28.6591 34.6784 27.9591 32.2284 27.7591 29.5784C27.6591 27.9284 26.7591 26.6284 25.7091 25.3784C25.5091 25.1284 25.3091 25.0284 25.0091 25.2284C23.9359 25.8202 22.8153 26.3219 21.6591 26.7284C19.2462 27.5804 17.1289 29.1077 15.5591 31.1284C14.9729 31.8659 14.5933 32.746 14.4591 33.6784C14.3091 34.5784 14.5591 34.9784 15.4591 35.2284C16.3591 35.4784 16.8091 35.9784 16.9091 36.9284C16.9591 37.3284 16.8091 37.5284 16.4091 37.5284H12.3591C12.2266 37.519 12.0982 37.4778 11.9851 37.4081C11.8719 37.3385 11.7772 37.2425 11.7091 37.1284C11.081 36.3508 10.7449 35.3779 10.7591 34.3784C10.7329 32.6509 10.8837 30.9252 11.2091 29.2284C11.2759 28.7203 11.4656 28.2361 11.7618 27.8178C12.0581 27.3996 12.4519 27.06 12.9091 26.8284C15.8591 25.4284 17.4091 22.7784 18.8091 20.0284C19.1091 19.4784 18.8591 19.3784 18.3591 19.4284C16.9598 19.6227 15.634 20.1737 14.5091 21.0284C13.0362 22.1029 11.6487 23.2897 10.3591 24.5784C8.98394 25.9753 7.16046 26.8427 5.20911 27.0284C1.55911 27.2284 -0.140885 25.1784 0.00911497 21.8784C0.0426462 20.7532 0.466939 19.6748 1.20912 18.8284C1.46713 18.4939 1.81898 18.2439 2.21975 18.1103C2.62052 17.9767 3.05201 17.9656 3.45912 18.0784C4.20912 18.2784 4.40911 18.6784 4.10911 19.4284C3.95911 19.7284 3.75911 19.9784 3.60911 20.2784C3.39341 20.5849 3.22488 20.922 3.10911 21.2784C2.55911 22.7784 3.30911 23.8284 4.85911 23.9784C6.50911 24.1284 7.85912 23.4284 9.10912 22.4284C10.6151 21.2226 11.9595 19.8277 13.1091 18.2784C13.9687 17.1471 15.0512 16.2041 16.2895 15.5075C17.5279 14.8109 18.8959 14.3756 20.3091 14.2284C21.4591 14.0784 22.4591 13.5784 23.5591 13.2784C25.6164 12.6512 27.7586 12.3476 29.9091 12.3784C30.9052 12.4199 31.8974 12.2317 32.8091 11.8284C35.2591 10.8284 37.8091 10.8284 40.3591 11.3284C42.3591 11.7284 44.3591 12.2284 46.3091 12.7284C47.4696 12.9447 48.6629 12.9106 49.8091 12.6284C52.0034 12.0722 54.248 11.7372 56.5091 11.6284C57.9904 11.5564 59.4667 11.8482 60.8091 12.4784C61.8091 12.9284 61.8091 12.9284 61.5591 13.8784Z" fill="black"/>
    </g>
    <defs>
    <clipPath id="clip0_95_1">
    <rect width="67" height="28" fill="white" transform="translate(0 11)"/>
    </clipPath>
    </defs>
  </svg>

  <svg id="product-description-image-arrow" width="32" height="12" viewBox="0 0 32 12" fill="none">
    <line y1="6" x2="18" y2="6" stroke="black" stroke-width="2"/>
    <path d="M24 6L17.25 11.1962L17.25 0.803848L24 6Z" fill="black"/>
  </svg>

  <svg id="product-description-image-desktop-1" width="100" height="106" viewBox="0 0 100 106" fill="none">
    <circle cx="50" cy="56" r="50" fill="#68B738"/>
    <g clip-path="url(#clip0_2403_488)">
    <path d="M69.84 0H69.46C68.818 0.362938 68.307 0.919413 68 1.59C67.4377 2.67211 67.0047 3.81665 66.71 5C66.6468 5.35582 66.4671 5.68054 66.1992 5.92311C65.9313 6.16567 65.5903 6.31232 65.23 6.34C64.1279 6.52999 63.0837 6.96931 62.1773 7.62443C61.2709 8.27955 60.5262 9.13313 60 10.12C59.2766 11.4013 58.6579 12.739 58.15 14.12C56.73 17.8 55.64 21.6 54.3 25.31C53.67 27 53.64 27 51.74 27C49.47 27 49.63 26.65 49.6 29.15C49.6 29.94 49.84 30.34 50.68 30.3C50.94 30.3 51.33 30.17 51.43 30.51C51.53 30.85 51.19 31 50.99 31.2C49.8043 32.4036 48.3037 33.2492 46.66 33.64C44.76 34.15 42.82 34.55 40.97 35.17C36.22 36.76 31.83 38.98 28.41 42.74C26.4103 45.0754 24.8088 47.7242 23.67 50.58C20 59.22 18.22 68.32 16.84 77.51C16.19 81.82 15.73 86.15 15.38 90.51C15.2 92.65 15 94.82 15 97H48.33C48.3853 96.5599 48.3051 96.1133 48.1 95.72C47.7794 94.9221 47.2586 94.2204 46.5877 93.6827C45.9167 93.1449 45.1185 92.7892 44.27 92.65C43.57 92.49 43.49 92.28 43.92 91.73C44.6214 90.7939 45.159 89.7458 45.51 88.63C47.14 83.82 47.77 78.8 48.56 73.83C49.0063 70.0338 50.1739 66.3579 52 63C53.4244 60.5284 55.3243 58.3634 57.59 56.63C58.42 56 58.45 56 58.59 57.07C58.69 57.78 58.71 58.51 58.76 59.23C59.0601 63.9544 58.9999 68.6948 58.58 73.41C58.2024 77.0649 58.1522 80.7462 58.43 84.41C58.8275 88.6636 59.5869 92.8755 60.7 97H74C73.8264 95.9175 73.328 94.9132 72.5708 94.1203C71.8136 93.3274 70.8334 92.7833 69.76 92.56C68.5066 92.3608 67.2252 92.429 66 92.76C65.4 92.9 65.15 92.76 65.1 92.11C64.6863 86.8159 65.0229 81.4899 66.1 76.29C67.4338 70.287 68.4552 64.2189 69.16 58.11C69.4224 55.643 70.1992 53.2584 71.44 51.11C72.63 48.99 73.67 46.79 74.84 44.66C75.3045 43.8855 75.5841 43.0143 75.657 42.1141C75.7298 41.2139 75.594 40.3091 75.26 39.47C74.99 38.76 74.73 38.04 74.4 37.36C73.4 35.41 72.4 33.48 71.48 31.51C70.99 30.51 71.1 30.39 72.19 30.36C73.82 30.36 73.82 30.36 73.85 28.72C73.85 28.5 73.85 28.28 73.85 28.06C73.85 27.37 73.59 26.99 72.85 27.06C72.35 27.06 71.85 27.06 71.33 27.06C70.64 27.06 70.44 26.77 70.61 26.06C70.9473 24.9058 71.611 23.8737 72.5211 23.0877C73.4312 22.3018 74.549 21.7956 75.74 21.63C77.9557 21.4379 80.1878 21.5829 82.36 22.06C82.6107 22.139 82.8823 22.1161 83.1162 21.9963C83.3502 21.8766 83.5275 21.6695 83.61 21.42C84.01 20.42 84.45 19.42 84.9 18.42C85.002 18.2426 85.0471 18.0381 85.0292 17.8343C85.0113 17.6304 84.9313 17.437 84.8 17.28C81.6 13.22 78.13 9.43 73.4 7C73.1715 6.90163 72.9712 6.7476 72.8175 6.55196C72.6638 6.35633 72.5615 6.12531 72.52 5.88C72.2523 4.45051 71.8264 3.05525 71.25 1.72C70.9795 1.00861 70.4845 0.404782 69.84 0V0Z" fill="black"/>
    </g>
    <defs>
    <clipPath id="clip0_2403_488">
    <rect width="70" height="97" fill="white" transform="translate(15)"/>
    </clipPath>
    </defs>
  </svg>

  <svg id="product-description-image-desktop-2" width="134" height="100" viewBox="0 0 134 100" fill="none">
    <circle cx="69" cy="50" r="50" fill="#68B738"/>
    <g clip-path="url(#clip0_2403_507)">
    <path d="M123.118 25.7569C124.273 23.9199 125.807 22.3515 127.618 21.1569C128.618 20.4569 129.218 20.4569 129.818 21.7569C130.618 23.6569 131.318 25.6569 130.718 27.7569C130.609 28.113 130.588 28.4904 130.658 28.8564C130.728 29.2223 130.886 29.5658 131.118 29.8569C131.718 30.6569 132.218 31.4569 132.718 32.1569C133.399 33.0206 133.84 34.0482 133.998 35.1364C134.156 36.2246 134.025 37.3352 133.618 38.3569C133.251 39.3487 133.182 40.4261 133.418 41.4569C133.618 42.4469 133.618 43.4668 133.418 44.4569C133.337 45.1983 133.037 45.8987 132.556 46.4688C132.075 47.0388 131.435 47.4524 130.718 47.6569C129.439 47.9002 128.298 48.6137 127.518 49.6569C127.424 49.8105 127.291 49.9372 127.134 50.0247C126.976 50.1123 126.799 50.1578 126.618 50.1569C125.418 50.3569 122.418 47.6569 122.418 46.4569V45.8569C122.518 42.2569 122.318 41.9569 119.018 40.4569C118.328 40.2133 117.709 39.8007 117.218 39.2569C116.618 38.4569 115.818 38.5569 114.918 38.8569C114.018 39.1569 113.518 39.7569 113.618 40.7569C113.92 43.1777 114.02 45.6194 113.918 48.0569C113.925 48.335 113.993 48.6083 114.118 48.8569C117.218 53.3569 118.418 58.6569 119.918 63.7569C121.118 67.6569 123.318 69.7569 127.318 70.0569C127.958 70.1079 128.594 70.2082 129.218 70.3569C130.04 70.4889 130.803 70.8644 131.41 71.4349C132.016 72.0054 132.437 72.7445 132.618 73.5569C133.318 75.6569 132.918 76.1569 130.818 76.1569H124.318C123.477 76.1994 122.652 75.9124 122.018 75.3569C121.006 74.5027 119.856 73.8265 118.618 73.3569C117.249 72.8516 116.065 71.9455 115.218 70.7569C114.047 69.1203 112.706 67.612 111.218 66.2569C108.418 63.3569 105.418 60.5569 102.818 57.5569C100.839 55.5127 99.6973 52.8012 99.6182 49.9569C99.6182 49.0569 99.4182 48.6569 98.4182 49.0569C98.1188 49.2468 97.7728 49.3506 97.4182 49.3569C94.6182 49.3569 93.2182 51.0569 92.2182 53.5569C91.3182 55.6569 90.1182 57.6569 89.0182 59.7569C88.3945 61.0714 88.0538 62.5023 88.0182 63.9569C88.0182 66.3569 88.6182 67.1569 90.8182 67.9569C92.2182 68.4569 93.5182 68.9569 94.2182 70.3569C95.0182 71.9569 94.8182 72.3569 93.1182 72.4569H86.3182C85.9262 72.4957 85.5319 72.4104 85.191 72.213C84.8501 72.0156 84.5798 71.7162 84.4182 71.3569L82.6182 68.3569C82.0876 67.5741 81.7479 66.6779 81.6264 65.7401C81.5048 64.8023 81.6048 63.849 81.9182 62.9569C82.351 61.2204 82.3852 59.4084 82.0182 57.6569C81.7662 56.437 81.7879 55.1764 82.0819 53.9659C82.3758 52.7554 82.9347 51.6252 83.7182 50.6569C84.3182 49.9569 84.3182 49.6569 83.3182 49.4569C79.2291 48.5882 75.2649 47.2108 71.5182 45.3569C71.4917 45.3569 71.4663 45.3463 71.4475 45.3276C71.4288 45.3088 71.4182 45.2834 71.4182 45.2569C68.2182 44.0569 67.6182 44.2569 66.7182 47.5569C65.9182 50.3569 65.1182 53.1569 64.5182 56.0569C63.8182 59.2569 64.6182 62.2569 65.6182 65.2569C66.0182 66.4569 67.2182 66.3569 68.1182 66.6569C70.1182 67.2569 71.8182 68.0569 72.6182 70.1569C73.3182 71.7569 73.2182 71.9569 71.5182 71.9569C69.8182 71.9569 68.1182 71.8569 66.3182 71.9569C64.7993 71.9844 63.3169 71.4902 62.1182 70.5569C57.3182 67.3569 55.9182 62.4569 55.5182 57.1569C55.3182 53.8569 53.5182 51.2569 51.4182 48.7569C51.0182 48.2569 50.6182 48.0569 50.0182 48.4569C47.8717 49.6404 45.6307 50.6439 43.3182 51.4569C38.4925 53.1608 34.2579 56.2153 31.1182 60.2569C29.9459 61.7318 29.1866 63.4919 28.9182 65.3569C28.6182 67.1569 29.1182 67.9569 30.9182 68.4569C32.7182 68.9569 33.6182 69.9569 33.8182 71.8569C33.9182 72.6569 33.6182 73.0569 32.8182 73.0569H24.7182C24.4531 73.0381 24.1965 72.9555 23.9702 72.8162C23.7438 72.6769 23.5545 72.485 23.4182 72.2569C22.1621 70.7016 21.4899 68.7558 21.5182 66.7569C21.4658 63.3018 21.7673 59.8505 22.4182 56.4569C22.5517 55.4405 22.9311 54.4721 23.5236 53.6357C24.1161 52.7992 24.9038 52.12 25.8182 51.6569C31.7182 48.8569 34.8182 43.5569 37.6182 38.0569C38.2182 36.9569 37.7182 36.7569 36.7182 36.8569C33.9196 37.2454 31.2679 38.3474 29.0182 40.0569C26.0724 42.2057 23.2975 44.5795 20.7182 47.1569C17.9679 49.9505 14.3209 51.6855 10.4182 52.0569C3.11823 52.4569 -0.28177 48.3569 0.0182299 41.7569C0.0852924 39.5065 0.933877 37.3496 2.41823 35.6569C2.93425 34.9879 3.63796 34.4878 4.4395 34.2207C5.24103 33.9535 6.10401 33.9313 6.91823 34.1569C8.41823 34.5569 8.81823 35.3569 8.21823 36.8569C7.91823 37.4569 7.51823 37.9569 7.21823 38.5569C6.78683 39.1698 6.44975 39.844 6.21823 40.5569C5.11823 43.5569 6.61823 45.6569 9.71823 45.9569C13.0182 46.2569 15.7182 44.8569 18.2182 42.8569C21.2302 40.4451 23.9189 37.6555 26.2182 34.5569C27.9375 32.2943 30.1023 30.4081 32.5791 29.015C35.0558 27.6218 37.7918 26.7512 40.6182 26.4569C42.9182 26.1569 44.9182 25.1569 47.1182 24.5569C51.2327 23.3025 55.5172 22.6952 59.8182 22.7569C61.8103 22.8398 63.7948 22.4634 65.6182 21.6569C70.5182 19.6569 75.6182 19.6569 80.7182 20.6569C84.7182 21.4569 88.7182 22.4569 92.6182 23.4569C94.9392 23.8893 97.3257 23.8211 99.6182 23.2569C104.007 22.1444 108.496 21.4744 113.018 21.2569C115.981 21.1127 118.933 21.6964 121.618 22.9569C123.618 23.8569 123.618 23.8569 123.118 25.7569Z" fill="black"/>
    </g>
    <defs>
    <clipPath id="clip0_2403_507">
    <rect width="134" height="56" fill="white" transform="translate(0 20)"/>
    </clipPath>
    </defs>
  </svg>

  <svg id="product-description-image-tablet-1" width="200" height="211" viewBox="0 0 200 211" fill="none">
    <circle cx="100" cy="111" r="100" fill="#68B738"/>
    <g clip-path="url(#clip0_2403_755)">
    <path d="M139.68 0H138.92C137.636 0.725875 136.614 1.83883 136 3.18C134.875 5.34423 134.009 7.63331 133.42 10C133.294 10.7116 132.934 11.3611 132.398 11.8462C131.863 12.3313 131.181 12.6246 130.46 12.68C128.256 13.06 126.167 13.9386 124.355 15.2489C122.542 16.5591 121.052 18.2663 120 20.24C118.553 22.8026 117.316 25.478 116.3 28.24C113.46 35.6 111.28 43.2 108.6 50.62C107.34 54 107.28 54 103.48 54C98.94 54 99.26 53.3 99.2 58.3C99.2 59.88 99.68 60.68 101.36 60.6C101.88 60.6 102.66 60.34 102.86 61.02C103.06 61.7 102.38 62 101.98 62.4C99.6086 64.8073 96.6075 66.4984 93.32 67.28C89.52 68.3 85.64 69.1 81.94 70.34C72.44 73.52 63.66 77.96 56.82 85.48C52.8206 90.1507 49.6177 95.4483 47.34 101.16C40 118.44 36.44 136.64 33.68 155.02C32.38 163.64 31.46 172.3 30.76 181.02C30.4 185.3 30 189.64 30 194H96.66C96.7707 193.12 96.6102 192.227 96.2 191.44C95.5589 189.844 94.5171 188.441 93.1753 187.365C91.8335 186.29 90.237 185.578 88.54 185.3C87.14 184.98 86.98 184.56 87.84 183.46C89.2427 181.588 90.318 179.492 91.02 177.26C94.28 167.64 95.54 157.6 97.12 147.66C98.0125 140.068 100.348 132.716 104 126C106.849 121.057 110.649 116.727 115.18 113.26C116.84 112 116.9 112 117.18 114.14C117.38 115.56 117.42 117.02 117.52 118.46C118.12 127.909 118 137.39 117.16 146.82C116.405 154.13 116.304 161.492 116.86 168.82C117.655 177.327 119.174 185.751 121.4 194H148C147.653 191.835 146.656 189.826 145.142 188.241C143.627 186.655 141.667 185.567 139.52 185.12C137.013 184.722 134.45 184.858 132 185.52C130.8 185.8 130.3 185.52 130.2 184.22C129.373 173.632 130.046 162.98 132.2 152.58C134.868 140.574 136.91 128.438 138.32 116.22C138.845 111.286 140.398 106.517 142.88 102.22C145.26 97.98 147.34 93.58 149.68 89.32C150.609 87.771 151.168 86.0286 151.314 84.2282C151.46 82.4279 151.188 80.6182 150.52 78.94C149.98 77.52 149.46 76.08 148.8 74.72C146.8 70.82 144.8 66.96 142.96 63.02C141.98 61.02 142.2 60.78 144.38 60.72C147.64 60.72 147.64 60.72 147.7 57.44C147.7 57 147.7 56.56 147.7 56.12C147.7 54.74 147.18 53.98 145.7 54.12C144.7 54.12 143.7 54.12 142.66 54.12C141.28 54.12 140.88 53.54 141.22 52.12C141.895 49.8116 143.222 47.7473 145.042 46.1755C146.862 44.6037 149.098 43.5912 151.48 43.26C155.911 42.8758 160.376 43.1657 164.72 44.12C165.221 44.2779 165.765 44.2322 166.232 43.9927C166.7 43.7531 167.055 43.3391 167.22 42.84C168.02 40.84 168.9 38.84 169.8 36.84C170.004 36.4852 170.094 36.0763 170.058 35.6686C170.023 35.2608 169.863 34.8739 169.6 34.56C163.2 26.44 156.26 18.86 146.8 14C146.343 13.8033 145.942 13.4952 145.635 13.1039C145.328 12.7127 145.123 12.2506 145.04 11.76C144.505 8.90102 143.653 6.11051 142.5 3.44C141.959 2.01723 140.969 0.809563 139.68 0V0Z" fill="black"/>
    </g>
    <defs>
    <clipPath id="clip0_2403_755">
    <rect width="140" height="194" fill="white" transform="translate(30)"/>
    </clipPath>
    </defs>
  </svg>

  <svg id="product-description-image-tablet-2" width="268" height="200" viewBox="0 0 268 200" fill="none">
    <circle cx="134" cy="100" r="100" fill="#68B738"/>
    <g clip-path="url(#clip0_87710_573)">
    <path d="M246.236 55.5137C248.545 51.8399 251.614 48.7029 255.236 46.3137C257.236 44.9137 258.436 44.9137 259.636 47.5137C261.236 51.3137 262.636 55.3137 261.436 59.5137C261.218 60.226 261.177 60.9809 261.316 61.7128C261.456 62.4447 261.772 63.1315 262.236 63.7137C263.436 65.3137 264.436 66.9137 265.436 68.3137C266.797 70.0412 267.68 72.0963 267.996 74.2728C268.312 76.4492 268.05 78.6705 267.236 80.7137C266.502 82.6973 266.363 84.8522 266.836 86.9137C267.236 88.8937 267.236 90.9337 266.836 92.9137C266.675 94.3965 266.075 95.7975 265.113 96.9375C264.151 98.0775 262.871 98.9048 261.436 99.3137C258.878 99.8005 256.595 101.227 255.036 103.314C254.848 103.621 254.583 103.874 254.267 104.049C253.952 104.225 253.597 104.316 253.236 104.314C250.836 104.714 244.836 99.3137 244.836 96.9137V95.7137C245.036 88.5137 244.636 87.9137 238.036 84.9137C236.655 84.4265 235.417 83.6015 234.436 82.5137C233.236 80.9137 231.636 81.1137 229.836 81.7137C228.036 82.3137 227.036 83.5137 227.236 85.5137C227.84 90.3554 228.04 95.2388 227.836 100.114C227.85 100.67 227.986 101.217 228.236 101.714C234.436 110.714 236.836 121.314 239.836 131.514C242.236 139.314 246.636 143.514 254.636 144.114C255.917 144.216 257.187 144.416 258.436 144.714C260.08 144.978 261.607 145.729 262.819 146.87C264.031 148.011 264.873 149.489 265.236 151.114C266.636 155.314 265.836 156.314 261.636 156.314H248.636C246.953 156.399 245.303 155.825 244.036 154.714C242.012 153.005 239.713 151.653 237.236 150.714C234.499 149.703 232.129 147.891 230.436 145.514C228.094 142.241 225.412 139.224 222.436 136.514C216.836 130.714 210.836 125.114 205.636 119.114C201.678 115.025 199.395 109.602 199.236 103.914C199.236 102.114 198.836 101.314 196.836 102.114C196.238 102.494 195.546 102.701 194.836 102.714C189.236 102.714 186.436 106.114 184.436 111.114C182.636 115.314 180.236 119.314 178.036 123.514C176.789 126.143 176.108 129.005 176.036 131.914C176.036 136.714 177.236 138.314 181.636 139.914C184.436 140.914 187.036 141.914 188.436 144.714C190.036 147.914 189.636 148.714 186.236 148.914H172.636C171.852 148.991 171.064 148.821 170.382 148.426C169.7 148.031 169.16 147.432 168.836 146.714L165.236 140.714C164.175 139.148 163.496 137.356 163.253 135.48C163.01 133.605 163.21 131.698 163.836 129.914C164.702 126.441 164.77 122.817 164.036 119.314C163.532 116.874 163.576 114.353 164.164 111.932C164.752 109.511 165.869 107.25 167.436 105.314C168.636 103.914 168.636 103.314 166.636 102.914C158.458 101.176 150.53 98.4217 143.036 94.7137C142.983 94.7137 142.933 94.6926 142.895 94.6551C142.858 94.6176 142.836 94.5667 142.836 94.5137C136.436 92.1137 135.236 92.5137 133.436 99.1137C131.836 104.714 130.236 110.314 129.036 116.114C127.636 122.514 129.236 128.514 131.236 134.514C132.036 136.914 134.436 136.714 136.236 137.314C140.236 138.514 143.636 140.114 145.236 144.314C146.636 147.514 146.436 147.914 143.036 147.914C139.636 147.914 136.236 147.714 132.636 147.914C129.599 147.969 126.634 146.98 124.236 145.114C114.636 138.714 111.836 128.914 111.036 118.314C110.636 111.714 107.036 106.514 102.836 101.514C102.036 100.514 101.236 100.114 100.036 100.914C95.7434 103.281 91.2614 105.288 86.6365 106.914C76.985 110.322 68.5157 116.431 62.2365 124.514C59.8918 127.464 58.3732 130.984 57.8365 134.714C57.2365 138.314 58.2365 139.914 61.8365 140.914C65.4365 141.914 67.2365 143.914 67.6365 147.714C67.8365 149.314 67.2365 150.114 65.6365 150.114H49.4365C48.9063 150.076 48.393 149.911 47.9403 149.632C47.4876 149.354 47.1089 148.97 46.8365 148.514C44.3242 145.403 42.9798 141.512 43.0365 137.514C42.9315 130.604 43.5346 123.701 44.8365 116.914C45.1034 114.881 45.8623 112.944 47.0473 111.271C48.2323 109.598 49.8075 108.24 51.6365 107.314C63.4365 101.714 69.6365 91.1137 75.2365 80.1137C76.4365 77.9137 75.4365 77.5137 73.4365 77.7137C67.8391 78.4908 62.5358 80.6947 58.0365 84.1137C52.1448 88.4114 46.5949 93.1589 41.4365 98.3137C35.9358 103.901 28.6418 107.371 20.8365 108.114C6.23646 108.914 -0.56354 100.714 0.0364599 87.5137C0.170585 83.0129 1.86775 78.6993 4.83646 75.3137C5.8685 73.9757 7.27593 72.9757 8.87899 72.4413C10.4821 71.907 12.208 71.8625 13.8365 72.3137C16.8365 73.1137 17.6365 74.7137 16.4365 77.7137C15.8365 78.9137 15.0365 79.9137 14.4365 81.1137C13.5737 82.3396 12.8995 83.6879 12.4365 85.1137C10.2365 91.1137 13.2365 95.3137 19.4365 95.9137C26.0365 96.5137 31.4365 93.7137 36.4365 89.7137C42.4603 84.8902 47.8379 79.311 52.4365 73.1137C55.875 68.5885 60.2046 64.8163 65.1581 62.03C70.1116 59.2436 75.5837 57.5024 81.2365 56.9137C85.8365 56.3137 89.8365 54.3137 94.2365 53.1137C102.465 50.6049 111.034 49.3904 119.636 49.5137C123.621 49.6796 127.59 48.9269 131.236 47.3137C141.036 43.3137 151.236 43.3137 161.436 45.3137C169.436 46.9137 177.436 48.9137 185.236 50.9137C189.878 51.7787 194.651 51.6423 199.236 50.5137C208.014 48.2888 216.992 46.9488 226.036 46.5137C231.961 46.2254 237.867 47.3928 243.236 49.9137C247.236 51.7137 247.236 51.7137 246.236 55.5137Z" fill="black"/>
    </g>
    <defs>
    <clipPath id="clip0_87710_573">
    <rect width="268" height="112" fill="white" transform="translate(0 44)"/>
    </clipPath>
    </defs>
  </svg>

  <svg id="telegram" width="28" height="22" viewBox="0 0 28 22" fill="none">
    <path fill-rule="evenodd" clip-rule="evenodd" d="M23.4608 3.15291C23.6393 3.30222 23.7255 3.5349 23.6872 3.76448L21.0611 19.5214C21.0244 19.7411 20.8789 19.9273 20.6745 20.0159C20.47 20.1045 20.2346 20.0833 20.0493 19.9597L12.1708 14.7074C12.0177 14.6054 11.9145 14.4437 11.8862 14.2619C11.858 14.08 11.9074 13.8947 12.0223 13.751L14.633 10.4877L10.273 13.3944C10.077 13.525 9.82597 13.5407 9.61524 13.4353L4.36293 10.8092C4.12769 10.6915 3.98535 10.4449 4.0012 10.1824C4.01705 9.91983 4.18804 9.6921 4.43573 9.60364L22.8188 3.03826C23.038 2.95998 23.2822 3.00359 23.4608 3.15291ZM6.32626 10.3228L9.86168 12.0905L17.4231 7.0495C17.6925 6.86994 18.0525 6.91349 18.2712 7.1521C18.49 7.3907 18.5022 7.75314 18.3 8.00591L13.495 14.0121L19.9328 18.3039L22.2083 4.65058L6.32626 10.3228Z" fill="#666666"/>
  </svg>

  <svg id="vk" width="27" height="17" viewBox="0 0 27 17" fill="none">
    <path d="M0 2.33876C0 1.48373 0.515103 1.02268 1.54531 0.955621L5.51515 0.980769C5.78158 0.980769 5.95921 1.10651 6.04802 1.35799C6.45655 2.61538 6.91392 3.70094 7.42014 4.61465C7.92637 5.52835 8.58801 6.58038 9.40507 7.77071C9.47611 7.9216 9.59157 7.99704 9.75143 7.99704C9.87576 7.99704 9.97345 7.93836 10.0445 7.82101L10.1244 7.54438L10.1511 3.19379C10.1511 2.89201 10.0756 2.69083 9.92461 2.59024C9.77363 2.48965 9.49388 2.4142 9.08535 2.36391C8.76563 2.31361 8.60577 2.12919 8.60577 1.81065C8.60577 1.74359 8.61465 1.69329 8.63241 1.65976C9.00542 0.57002 10.0711 0.0251479 11.8296 0.0251479L13.3216 0C13.9966 0 14.5561 0.15927 15.0001 0.477811C15.4442 0.796351 15.6662 1.29931 15.6662 1.98669V7.69527C15.7906 7.77909 15.906 7.82101 16.0126 7.82101C16.279 7.82101 16.5099 7.67012 16.7053 7.36834C18.6592 4.78649 19.716 3.05966 19.8759 2.18787C19.8759 2.1711 19.8936 2.12919 19.9291 2.06213C20.0535 1.81065 20.2577 1.5927 20.5419 1.40828C20.8261 1.22387 21.0748 1.09813 21.288 1.03107C21.359 0.997535 21.4389 0.980769 21.5277 0.980769H25.6574L25.9239 1.00592C26.2791 1.00592 26.5544 1.16519 26.7498 1.48373C26.8209 1.58432 26.8697 1.69329 26.8964 1.81065C26.923 1.92801 26.9408 2.04536 26.9496 2.16272C26.9585 2.28008 26.963 2.34714 26.963 2.36391V2.53994C26.8386 3.22732 26.5233 3.9608 26.0171 4.74038C25.5109 5.51997 24.867 6.36243 24.0855 7.26775C23.304 8.17308 22.8155 8.76825 22.6201 9.05326C22.4603 9.25444 22.3803 9.43886 22.3803 9.60651C22.3803 9.74063 22.4514 9.89152 22.5935 10.0592L26.4834 14.6864C26.6965 14.9546 26.8031 15.248 26.8031 15.5666C26.8031 15.9522 26.6432 16.2707 26.3235 16.5222C26.0038 16.7737 25.6219 16.9162 25.1779 16.9497L24.7249 16.9749H20.6752C20.6574 16.9749 20.6219 16.979 20.5686 16.9874C20.5153 16.9958 20.4798 17 20.462 17C20.0712 17 19.7071 16.8407 19.3696 16.5222C19.2453 16.3881 18.4105 15.3989 16.8652 13.5547C16.7764 13.4374 16.652 13.3284 16.4922 13.2278C16.4211 13.4961 16.3279 13.8817 16.2124 14.3846C16.097 14.8876 16.0126 15.248 15.9593 15.466L15.8794 15.8935C15.7018 16.4803 15.3287 16.8323 14.7604 16.9497L14.3874 16.9749H11.7763C10.3021 16.9749 8.83224 16.3378 7.36686 15.0636C5.90148 13.7894 4.58264 12.1423 3.41034 10.122C2.23803 8.10182 1.14566 5.75049 0.133216 3.06805C0.0444054 2.8501 0 2.607 0 2.33876ZM16.0126 8.85207C15.6396 8.85207 15.3021 8.75567 15.0001 8.56287C14.6982 8.37007 14.5472 8.10602 14.5472 7.77071V1.98669C14.5472 1.65138 14.4584 1.41248 14.2808 1.26997C14.1032 1.12747 13.7923 1.05621 13.3483 1.05621L11.8296 1.10651C11.0658 1.10651 10.4886 1.23225 10.0978 1.48373C10.8793 1.8358 11.2701 2.40582 11.2701 3.19379V7.61982C11.2346 8.03895 11.0569 8.38683 10.7372 8.66346C10.4175 8.94009 10.0623 9.0784 9.6715 9.0784C9.13863 9.0784 8.7301 8.83531 8.44591 8.34911C7.06046 6.37081 6.03025 4.4931 5.35529 2.71598L5.1155 2.06213L1.57195 2.03698C1.34104 2.03698 1.21227 2.04956 1.18562 2.0747C1.15898 2.09985 1.14566 2.1711 1.14566 2.28846C1.14566 2.43935 1.16342 2.59862 1.19895 2.76627L1.75845 4.17456C3.25048 7.81262 4.87127 10.6795 6.62085 12.7751C8.37042 14.8708 10.0889 15.9186 11.7763 15.9186H14.4406C14.5472 15.9186 14.6271 15.8893 14.6804 15.8306C14.7337 15.7719 14.7781 15.6588 14.8136 15.4911L14.8669 15.2396L15.3732 13.0266C15.5152 12.7249 15.6396 12.5237 15.7462 12.4231C15.9415 12.2387 16.1725 12.1465 16.4389 12.1465C16.8652 12.1465 17.3003 12.3895 17.7444 12.8757L20.0091 15.5917C20.1512 15.8097 20.3022 15.9186 20.462 15.9186H24.8581C25.391 15.9186 25.6574 15.7929 25.6574 15.5414C25.6574 15.4576 25.6308 15.3738 25.5775 15.2899L21.7142 10.7382C21.4123 10.3861 21.2613 10.0089 21.2613 9.60651C21.2613 9.20414 21.4034 8.81854 21.6876 8.4497C21.9185 8.1144 22.367 7.55695 23.0331 6.77737C23.6992 5.99778 24.2809 5.26849 24.7782 4.5895C25.2756 3.9105 25.6042 3.29438 25.764 2.74112L25.8439 2.4142C25.8262 2.38067 25.8173 2.32618 25.8173 2.25074C25.8173 2.1753 25.8084 2.11243 25.7907 2.06213H21.6077C21.3412 2.16272 21.1281 2.31361 20.9682 2.51479L20.8084 2.9926C20.3643 4.14941 19.2009 5.93491 17.3181 8.34911C16.9451 8.68442 16.5099 8.85207 16.0126 8.85207Z" fill="#666666"/>
  </svg>

  <svg width="24" height="19" viewBox="0 0 24 19" fill="none">
    <path d="M15.8509 8.79275L10.6145 5.30184C10.5159 5.23691 10.4016 5.19985 10.2837 5.19459C10.1657 5.18934 10.0486 5.21608 9.94459 5.27198C9.84061 5.32789 9.75368 5.41087 9.69302 5.51215C9.63236 5.61343 9.60022 5.72924 9.6 5.84729V12.8291C9.60013 12.9481 9.6327 13.0648 9.69421 13.1667C9.75572 13.2686 9.84384 13.3518 9.94909 13.4073C10.0524 13.4631 10.1691 13.4895 10.2864 13.4837C10.4037 13.478 10.5172 13.4402 10.6145 13.3746L15.8509 9.88366C15.9409 9.82395 16.0148 9.7429 16.0658 9.64772C16.1169 9.55255 16.1436 9.44621 16.1436 9.3382C16.1436 9.23019 16.1169 9.12385 16.0658 9.02868C16.0148 8.93351 15.9409 8.85245 15.8509 8.79275ZM10.9091 11.6073V7.06911L14.3127 9.3382L10.9091 11.6073ZM23.3891 3.04366C23.2942 2.67547 23.1131 2.33511 22.8609 2.05061C22.6086 1.76611 22.2924 1.54561 21.9382 1.40729C18.2182 -0.0217993 12.2509 1.91553e-05 12 1.91553e-05C11.7491 1.91553e-05 5.78182 -0.0217993 2.06182 1.40729C1.70764 1.54561 1.3914 1.76611 1.13914 2.05061C0.886889 2.33511 0.705838 2.67547 0.610909 3.04366C0.327273 4.11275 0 6.07638 0 9.3382C0 12.6 0.327273 14.5637 0.610909 15.6327C0.705838 16.0009 0.886889 16.3413 1.13914 16.6258C1.3914 16.9103 1.70764 17.1308 2.06182 17.2691C5.78182 18.6982 11.7491 18.6764 12 18.6764H12.0764C12.8291 18.6764 18.3927 18.6327 21.9382 17.2691C22.2924 17.1308 22.6086 16.9103 22.8609 16.6258C23.1131 16.3413 23.2942 16.0009 23.3891 15.6327C23.6727 14.5637 24 12.6 24 9.3382C24 6.07638 23.6727 4.11275 23.3891 3.04366ZM22.1236 15.3055C22.0807 15.472 21.999 15.6259 21.8853 15.7548C21.7715 15.8838 21.6289 15.984 21.4691 16.0473C17.9782 17.3891 12.0655 17.3673 12 17.3673C11.9345 17.3673 6.02182 17.3891 2.53091 16.0473C2.37107 15.984 2.22846 15.8838 2.11471 15.7548C2.00096 15.6259 1.91929 15.472 1.87636 15.3055C1.61455 14.3018 1.30909 12.4582 1.30909 9.3382C1.30909 6.2182 1.61455 4.37457 1.87636 3.37093C1.91929 3.20445 2.00096 3.05047 2.11471 2.92156C2.22846 2.79264 2.37107 2.69243 2.53091 2.62911C6.02182 1.28729 11.9345 1.30911 12 1.30911C12.0655 1.30911 17.9782 1.28729 21.4691 2.62911C21.6289 2.69243 21.7715 2.79264 21.8853 2.92156C21.999 3.05047 22.0807 3.20445 22.1236 3.37093C22.3855 4.37457 22.6909 6.2182 22.6909 9.3382C22.6909 12.4582 22.3855 14.3018 22.1236 15.3055Z" fill="#666666"/>
  </svg>


</svg>
